<svg xmlns="http://www.w3.org/2000/svg" width="268" height="233.297" viewBox="0 0 268 233.297"><defs><style>.a{fill:#e6e6e6;}.b{fill:#2d93ad;}.c{fill:#fff;}.d{fill:#2f2e41;}.e{fill:#9f616a;}</style></defs><ellipse class="a" cx="73.867" cy="3.712" rx="73.867" ry="3.712" transform="translate(46.77 225.873)"/><circle class="a" cx="36.657" cy="36.657" r="36.657" transform="translate(0 0)"/><circle class="b" cx="30.547" cy="30.547" r="30.547" transform="translate(6.109 6.109)"/><circle class="a" cx="36.657" cy="36.657" r="36.657" transform="translate(97.343 0)"/><circle class="c" cx="30.547" cy="30.547" r="30.547" transform="translate(103.453 6.109)"/><circle class="a" cx="36.657" cy="36.657" r="36.657" transform="translate(194.687 0)"/><circle class="c" cx="30.547" cy="30.547" r="30.547" transform="translate(200.796 6.109)"/><path class="c" d="M76.045,90.087l-8.9-11.442,5.175-4.026,4.214,5.418L90.77,65.011l4.76,4.51Z" transform="translate(-42.222 -40.879)"/><path class="d" d="M509.562,207.262c-2.407-5.814-2.8-11.3.6-16.176h0a12.24,12.24,0,0,1,13.057-11.762l2.213.15a12.192,12.192,0,0,1,10.5,7.567c4.126,10.233,4.256,23.833,3.226,38.41H508.892C510.69,218.634,511.612,212.236,509.562,207.262Z" transform="translate(-407.951 -163.131)"/><path class="e" d="M387.821,276.869l-8-3.592a6.094,6.094,0,0,1-2.65-8.821h0a6.094,6.094,0,0,1,9.873-.586l3.695,4.536,17.224,15.276,11.449-7.641,5.189,8.8-18.573,11.219Z" transform="translate(-325.29 -214.899)"/><path class="b" d="M493.613,292.122,487.3,280.041l24.585-10.95.213,2.311a12.252,12.252,0,0,1-5.054,11.076Z" transform="translate(-395.133 -219.595)"/><path class="e" d="M545.219,252.011l-25.074,20.751-1.441-2.017,6.917-12.393,3.17-1.441c.76-3.218-1.18-7.534-3.747-12.1l12.1-1.729C537.734,247,540.395,249.994,545.219,252.011Z" transform="translate(-414.881 -203.237)"/><path class="d" d="M369.193,457.239l-4.179,6.2-33.288-18.878,4.611-22.768Z" transform="translate(-208.592 -265.225)"/><path class="d" d="M527.868,512.185l-6.773-3.026L519.366,429.9l-6.485-43.087L538.1,382.06l5.188,11.24C556.036,410.785,537.451,464.36,527.868,512.185Z" transform="translate(-411.219 -290.63)"/><path class="d" d="M513.432,723.921l1.39,3.025a4.018,4.018,0,0,1-3.083,5.655l-18.373,2.625a3.776,3.776,0,0,1-4.165-2.7h0a3.776,3.776,0,0,1,1.734-4.3L506.37,720.5Z" transform="translate(-396.237 -503.442)"/><path class="d" d="M659.726,649.452l3.32-.244a4.018,4.018,0,0,1,4.219,4.866L663.3,672.2a3.776,3.776,0,0,1-3.987,2.957h0a3.776,3.776,0,0,1-3.424-3.129l-1.837-17.163Z" transform="translate(-499.986 -458.609)"/><circle class="e" cx="11.528" cy="11.528" r="11.528" transform="translate(102.959 22.548)"/><path class="b" d="M534.307,309.089l-25.074,5.188-.576-16.716c-3.631-3.844,4.837-19.239,7.782-26.515l3.747-1.153-6.341,11.528,22.192-18.157,4.323,1.153,1.153,21.039Z" transform="translate(-408.003 -215.931)"/><path class="e" d="M556.292,356.77l-5.437,6.877a6.094,6.094,0,0,1-9.2.415h0a6.094,6.094,0,0,1,1.844-9.717l5.3-2.474L567.82,338.9l-4.611-12.969,9.8-2.882,6.341,20.751Z" transform="translate(-428.259 -253.525)"/><path class="d" d="M551,228.587H530.115c.785-3.948,2.889-7.529,8.643-10.1,4.2-8.019,5.988-15.292,0-20.152-6.84-1.576-9.489-4.437-8.643-8.37l12.244-2.017C552.428,196.917,552.543,212.224,551,228.587Z" transform="translate(-421.96 -168.572)"/><path class="b" d="M604.9,287.385l-13.258,3.17-4.611-26.515,2.293.358a12.252,12.252,0,0,1,9.505,7.607Z" transform="translate(-457.845 -216.419)"/></svg>