<svg xmlns="http://www.w3.org/2000/svg" width="267.533" height="197.112" viewBox="0 0 267.533 197.112"><defs><style>.a{fill:#e6e6e6;}.b{fill:#ccc;}.c{fill:#2d93ad;}.d{opacity:0.2;}.e{fill:#2f2e41;}.f{fill:#a0616a;}.g{fill:#575a89;}.h{fill:#3f3d56;}.i{fill:#fff;}.j{fill:#b3b3b3;}.k{fill:#dedede;}</style></defs><g transform="translate(0 -0.001)"><rect class="a" width="112.454" height="3.299" transform="translate(155.079 72.988)"/><rect class="a" width="28.488" height="28.488" transform="translate(164.375 45.4)"/><rect class="b" width="17.093" height="17.093" transform="translate(170.073 51.097)"/><rect class="a" width="7.197" height="28.488" transform="translate(228.249 45.4)"/><rect class="b" width="7.197" height="3.299" transform="translate(228.249 49.898)"/><rect class="b" width="7.197" height="3.299" transform="translate(228.249 64.292)"/><rect class="a" width="7.197" height="28.488" transform="translate(217.154 45.4)"/><rect class="b" width="7.197" height="3.299" transform="translate(217.154 49.898)"/><rect class="b" width="7.197" height="3.299" transform="translate(217.154 64.292)"/><rect class="a" width="7.197" height="28.488" transform="matrix(0.896, -0.444, 0.444, 0.896, 235.197, 48.475)"/><rect class="b" width="7.197" height="3.299" transform="matrix(0.896, -0.444, 0.444, 0.896, 237.193, 52.506)"/><rect class="b" width="7.197" height="3.299" transform="matrix(0.896, -0.444, 0.444, 0.896, 243.58, 65.406)"/><path class="a" d="M510.206,170.382l3.625,6.277,3.624,6.277h-14.5l3.624-6.277Z" transform="translate(-335.186 -113.547)"/><path class="a" d="M529.085,173.978l3.624,6.277,3.625,6.277h-14.5l3.624-6.277Z" transform="translate(-347.767 -115.944)"/><circle class="a" cx="2.099" cy="2.099" r="2.099" transform="translate(181.768 51.997)"/><rect class="a" width="112.454" height="3.299" transform="translate(267.533 31.006) rotate(180)"/><rect class="a" width="28.488" height="28.488" transform="translate(258.237 28.607) rotate(180)"/><rect class="b" width="17.093" height="17.093" transform="translate(252.539 22.909) rotate(180)"/><rect class="a" width="7.197" height="28.488" transform="translate(194.363 28.607) rotate(180)"/><rect class="b" width="7.197" height="3.299" transform="translate(194.363 7.915) rotate(180)"/><rect class="b" width="7.197" height="3.299" transform="translate(194.363 22.309) rotate(180)"/><rect class="a" width="7.197" height="28.488" transform="translate(205.458 28.607) rotate(180)"/><rect class="b" width="7.197" height="3.299" transform="translate(205.458 7.915) rotate(180)"/><rect class="b" width="7.197" height="3.299" transform="translate(205.458 22.309) rotate(180)"/><rect class="a" width="7.197" height="28.488" transform="matrix(-0.896, -0.444, 0.444, -0.896, 174.775, 28.724)"/><rect class="b" width="7.197" height="3.299" transform="matrix(-0.896, -0.444, 0.444, -0.896, 183.955, 10.181)"/><rect class="b" width="7.197" height="3.299" transform="matrix(-0.896, -0.444, 0.444, -0.896, 177.569, 23.081)"/><path class="a" d="M727.762,34.634l-3.624,6.277-3.624,6.277h14.5l-3.625-6.277Z" transform="translate(-480.171 -23.081)"/><path class="a" d="M708.883,38.23l-3.624,6.277-3.624,6.277h14.5l-3.624-6.277Z" transform="translate(-467.59 -25.477)"/><circle class="a" cx="2.099" cy="2.099" r="2.099" transform="translate(236.646 6.715)"/><rect class="a" width="112.454" height="3.299" transform="translate(267.533 121.568) rotate(180)"/><rect class="a" width="28.488" height="28.488" transform="translate(258.237 119.169) rotate(180)"/><rect class="b" width="17.093" height="17.093" transform="translate(252.539 113.472) rotate(180)"/><rect class="a" width="7.197" height="28.488" transform="translate(194.363 119.169) rotate(180)"/><rect class="b" width="7.197" height="3.299" transform="translate(194.363 98.478) rotate(180)"/><rect class="b" width="7.197" height="3.299" transform="translate(194.363 112.872) rotate(180)"/><rect class="a" width="7.197" height="28.488" transform="translate(205.458 119.169) rotate(180)"/><rect class="b" width="7.197" height="3.299" transform="translate(205.458 98.478) rotate(180)"/><rect class="b" width="7.197" height="3.299" transform="translate(205.458 112.872) rotate(180)"/><rect class="a" width="7.197" height="28.488" transform="matrix(-0.896, -0.444, 0.444, -0.896, 174.774, 119.287)"/><rect class="b" width="7.197" height="3.299" transform="matrix(-0.896, -0.444, 0.444, -0.896, 183.955, 100.744)"/><rect class="b" width="7.197" height="3.299" transform="matrix(-0.896, -0.444, 0.444, -0.896, 177.569, 113.644)"/><path class="a" d="M727.762,306.129l-3.624,6.277-3.624,6.278h14.5l-3.625-6.278Z" transform="translate(-480.171 -204.013)"/><path class="a" d="M708.883,309.725,705.259,316l-3.624,6.278h14.5L712.508,316Z" transform="translate(-467.59 -206.409)"/><circle class="a" cx="2.099" cy="2.099" r="2.099" transform="translate(236.646 97.278)"/><ellipse class="a" cx="132.471" cy="9.408" rx="132.471" ry="9.408" transform="translate(0 178.296)"/><path class="c" d="M766.525,675.906c-21.6-3.844-45.221-3.205-70,0,11.293-9.534,21.04-19.068,9.747-28.6,22.029,4.545,25.114,4.085,49.619,0C750.209,656.838,760.841,666.372,766.525,675.906Z" transform="translate(-530.562 -482.932)"/><path class="d" d="M766.525,675.906c-21.6-3.844-45.221-3.205-70,0,11.293-9.534,21.04-19.068,9.747-28.6,22.029,4.545,25.114,4.085,49.619,0C750.209,656.838,760.841,666.372,766.525,675.906Z" transform="translate(-530.562 -482.932)"/><path class="c" d="M771.783,675.242c-18.349-3.069-38.414-2.559-59.461,0,9.593-7.61,17.873-15.22,8.279-22.83,18.713,3.628,21.334,3.26,42.15,0C757.922,660.022,766.955,667.632,771.783,675.242Z" transform="translate(-541.088 -486.336)"/><circle class="e" cx="9.777" cy="9.777" r="9.777" transform="translate(213.93 157.091)"/><path class="f" d="M515.787,466.249l6.774,1.129,3.387,9.785-9.785,6.022-11.29-16.935h10.914Z" transform="translate(-336.462 -310.721)"/><circle class="f" cx="15.806" cy="15.806" r="15.806" transform="translate(182.712 138.969)"/><path class="e" d="M416.825,445.919s-38.386,4.14-45.161,3.387a83.878,83.878,0,0,1-9.785-1.505s-4.516,6.021-2.258,8.656a16.285,16.285,0,0,0,4.516,3.763s4.14-1.129,7.15,0,33.494,6.021,38.763,1.505S416.825,445.919,416.825,445.919Z" transform="translate(-305.617 -348.723)"/><path class="e" d="M427.489,557.745s-25.215-7.15-29.731-38.763v-3.011s-4.989,8.752-6.774,10.538c-2.07,2.07-9.408,20.7-9.032,22.58a4.509,4.509,0,0,1,0,2.634l-10.914-1.129v-3.387s5.833-17.5,6.21-21.639,14.489-32.93,14.489-32.93,5.269-10.914,14.3,0,9.785,18.441,9.785,18.441l11.666,22.58Z" transform="translate(-313.647 -376.626)"/><path class="e" d="M328.889,432.553l-12.043-4.14s-11.29-8.279-8.656,0,14.677,26.344,18.064,24.462,7.46-6.552,6.553-7.228S325.879,440.08,328.889,432.553Z" transform="translate(-271.498 -334.605)"/><path class="e" d="M341.618,659.259l-9.721,4.748s-11.756,1.809-5.2,5.2,24.643,7.009,25.547,3.843.546-8.418-.405-8.279S344.331,665.589,341.618,659.259Z" transform="translate(-282.771 -490.899)"/><path class="g" d="M522.735,602.747s-4.892,21.075,3.387,25.591,66.235,5.269,70.751-3.011,2.258-8.279,2.258-8.279L587.089,603.5l9.785-.753a3.513,3.513,0,0,0-3.387-3.387c-3.387-.376-13.925-4.14-22.957-1.505s-14.3-5.269-14.3-5.269Z" transform="translate(-413.785 -446.467)"/><path class="h" d="M294.655,267.31l-6.4,35,44.032-5.269,7.9-31.612Z" transform="translate(-192.103 -176.889)"/><path class="i" d="M300.86,271.259l-5.269,31.236,40.08-4.7,7.715-28.414Z" transform="translate(-196.99 -179.52)"/><path class="j" d="M288.259,376.369l-1.505-.376L286,377.5l12.043,33.494,1.132-.433.373-2.2Z" transform="translate(-190.599 -250.572)"/><path class="k" d="M288.257,365.09l12.043,35,45.537-6.774L332.289,360.2Z" transform="translate(-192.103 -240.046)"/><path class="h" d="M306.309,363.961v1.882L339.8,362.08l-.376-1.882Z" transform="translate(-204.133 -240.046)"/><path class="h" d="M308.565,376l5.269,14.677,34.247-4.14-6.021-13.925Z" transform="translate(-205.637 -248.316)"/><path class="f" d="M605.8,568.485l-1.129-3.011s-8.656-15.053-13.172-12.043,9.408,17.688,9.408,17.688h4.516Z" transform="translate(-459.965 -420.108)"/><path class="f" d="M546.457,570.728l-1.129-4.516s-3.011-13.924,2.258-13.172,6.774,13.924,6.774,13.924l-.376,3.011Z" transform="translate(-429.228 -420.092)"/><path class="g" d="M556.391,599.5s-9.785-1.505-10.161.753-2.258,36.128,7.15,37.257,56.074,6.021,51.182-5.645-12.419-10.161-12.419-10.161l-31.989,3.387Z" transform="translate(-430.13 -450.748)"/><path class="g" d="M434,445.006l-9.973-6.962-6.586,5.081,8.28,9.032Z" transform="translate(-278.192 -291.925)"/><path class="d" d="M386.976,479.224l1.505,14.3,25.967-1.505-22.58-.376Z" transform="translate(-257.892 -319.368)"/><circle class="e" cx="18.817" cy="18.817" r="18.817" transform="translate(187.504 138.83)"/><path class="c" d="M328.309,288.939l23.333-.812,2.258-8.6-24.085.727Z" transform="translate(-218.795 -186.287)"/><path class="a" d="M310.258,317.14l35.376-1.129.376-1.505-35.376,1.246Z" transform="translate(-206.765 -209.595)"/><path class="a" d="M308,328.422l35.376-1.129.376-1.505-35.376,1.246Z" transform="translate(-205.261 -217.114)"/><path class="a" d="M306.873,337.447l35.376-1.129.377-1.505-35.376,1.245Z" transform="translate(-204.509 -223.129)"/></g></svg>