<svg xmlns="http://www.w3.org/2000/svg" width="593.318" height="320.174" viewBox="0 0 593.318 320.174"><defs><style>.a,.j{fill:#2d93ad;}.a,.h,.k{opacity:0.1;}.b{fill:#767d9f;}.c{fill:#ae6e79;}.d{fill:#4c4981;}.e{fill:#504f60;}.f{fill:#9c9ca1;}.g{opacity:0.05;}.i{fill:#fff;}.k{stroke:#4c4981;stroke-miterlimit:10;}.l{fill:#444053;}</style></defs><g transform="translate(0 -0.04)"><path class="a" d="M621.317,346.858a94.35,94.35,0,0,1-3.553,25.724,93.387,93.387,0,0,1-9.994,22.965c0,25.984-17.54,48.44-43,59.124A86.768,86.768,0,0,1,531.2,461.31H140.632a108.377,108.377,0,0,1-56.085-15.227A96.344,96.344,0,0,1,71.669,436.8C54.035,421.65,43.1,400.707,43.1,377.576A93.889,93.889,0,0,1,82.742,241.17a90.5,90.5,0,0,1,13.23-4.73q2.4-.653,4.854-1.172a90.958,90.958,0,0,1,13.23-1.815q2.412-.15,4.849-.171h.892c1.794,0,3.573.062,5.342.166l.581-.985q1.068-1.784,2.189-3.532,2.023-3.184,4.242-6.275,2.323-3.262,4.849-6.421l.43-.519q1.431-1.784,2.925-3.527,4.668-5.44,9.854-10.554c37.4-36.657,95.989-60.255,161.855-60.255,51.251,0,98.1,14.288,133.984,37.9a90.336,90.336,0,0,1,44.571-11.716c50.691,0,91.8,41.683,91.8,93.1a95.946,95.946,0,0,1-.519,9.74A93.354,93.354,0,0,1,621.317,346.858Z" transform="translate(-28 -141.34)"/><circle class="b" cx="18.085" cy="18.085" r="18.085" transform="translate(362.862 170.66)"/><path class="c" d="M760.28,448.018q2.707,11.815,4.6,23.805c.379,2.375.716,4.88-.145,7.126-.721,1.872-2.189,3.335-3.34,4.974s-2.023,3.739-1.323,5.617,2.744,2.9,4.694,3.433c5.581,1.5,11.529.41,17.084-1.219a27.637,27.637,0,0,0,7.162-2.966,26.8,26.8,0,0,0,6.058-5.7c8.1-9.818,13.4-21.6,18.386-33.312a20.289,20.289,0,0,1-17.172-6.919c-2.043-2.4-3.542-5.746-2.391-8.682-3.376,1.852-7.385,1.976-11.021,3.241a39.147,39.147,0,0,0-6.483,3.19q-3.724,2.152-7.406,4.388C766.172,446.68,763.542,448.184,760.28,448.018Z" transform="translate(-380.272 -282.279)"/><path class="b" d="M761.3,471.558c-3.169,6.167-7.292,12.095-13.179,15.766s-13.811,4.668-19.708,1.037c-2.9-1.774-5.1-4.471-7.64-6.742s-5.7-4.217-9.112-3.921c-3.755.327-6.7,3.257-9.211,6.063a72.039,72.039,0,0,0-10.207,13.754c-5.186,9.7-6.416,21.036-6.187,32.031s1.82,21.933,1.857,32.928c.052,13.526-2.24,26.943-4.559,40.267,21.316-2.624,42.658,3.112,64.02,5.285,13.671,1.406,27.446,1.374,41.19,1.338,2.417,0,4.989-.062,7-1.4a9.439,9.439,0,0,0,2.9-3.444c1.9-3.5,2.661-7.494,3.19-11.441,1.343-9.968,1.385-20.061,1.421-30.122.093-24.376.182-48.84-2.915-73.024-.762-5.949-1.737-11.929-4.019-17.494s-6.006-10.684-11.213-13.666c-3.345-1.919-11.1-5.259-15.04-3.324C765.46,457.606,763.417,467.429,761.3,471.558Z" transform="translate(-343.463 -292.241)"/><path class="d" d="M832.481,536.433c-.8-15.04-4.076-31.092,2.889-44.442,1.711-3.278-4.429-7.37-2.531-10.544a47.758,47.758,0,0,0,5.217-12.411,9.361,9.361,0,0,0,.337-4.59c-.69-2.744-3.4-4.377-5.705-6.047-2.541-1.846-3.848-7.474-4.668-10.518s6.519.622,9.47-.462c4.1-1.5,9.3-.555,13.391.965a22.352,22.352,0,0,0,7.193.975,94.764,94.764,0,0,0,14.154-.337,35.2,35.2,0,0,1,6.333-.545c5.4.306,10.093,4,13.287,8.366s5.228,9.455,7.847,14.185c2.183,3.942,4.787,7.665,6.649,11.768a72.46,72.46,0,0,1,3.724,11.41l2.661,9.953a13.268,13.268,0,0,1,.653,4.414,12.528,12.528,0,0,1-1.556,4.491,85.117,85.117,0,0,1-9.683,14.776c-5.6,6.862-12.39,13.049-15.715,21.264a53.717,53.717,0,0,0-2.676,9.994,367.2,367.2,0,0,0-5.653,41.05,90.34,90.34,0,0,0-18.94-6.332,92.106,92.106,0,0,0-9.854-1.556c-2.9-.3-6.639.27-9.4-.519-4.616-1.312-5.124-9.118-5.824-13.2a120.583,120.583,0,0,1-1.385-19.708C832.647,551.349,832.881,543.885,832.481,536.433Z" transform="translate(-413.073 -288.283)"/><path class="d" d="M599.668,559.042c2.183,12.447,4.59,24.931,9.335,36.626-.119.114-.239.218-.358.321-.42.358-.856.7-1.312,1.037a17.462,17.462,0,0,0-3.112,2.355,4.147,4.147,0,0,0-.778,1.271,2.842,2.842,0,0,0,0,2.318c-2.474,1.094-5.347.757-8.122.653-2.391-.088-4.709,0-6.628,1.312-2.666,1.836-3.47,5.363-3.9,8.568q-.239,1.753-.41,3.511-.166,1.634-.27,3.278a97.79,97.79,0,0,0-.1,10.891q.041,1,.109,1.992c-8.474-.2-16.2-4.621-23.5-8.915a12.966,12.966,0,0,1-4.476-3.63,8.2,8.2,0,0,1-1.2-5.337,5.916,5.916,0,0,1,.083-.788,21.572,21.572,0,0,1,1.188-4.5,55.6,55.6,0,0,1,9.953-16.933c1.857-2.168,3.947-4.289,4.813-7.012.379-1.188.519-2.448.9-3.63,1.722-5.124,7.935-7.546,10.062-12.52a37.985,37.985,0,0,1,1.4-3.63,9.145,9.145,0,0,1,2.2-2.463c.379-.316.773-.622,1.162-.928q5.466-4.284,10.533-9.05.944-.887,1.867-1.794A30.846,30.846,0,0,0,599.668,559.042Z" transform="translate(-281.626 -339.018)"/><path class="d" d="M693,484.071c-.747.788-1.556,1.53-2.349,2.266l-.213.192-.84.778a20.228,20.228,0,0,0-3.916,4.559l-.088.145c-2.645,4.735-1.665,10.565-.928,15.943a135.641,135.641,0,0,1,1.229,20.227c-.135,9.335-1.234,18.609-1.255,27.934q0,3.174.14,6.343c.15,3.439.41,6.872.721,10.305.337,3.765.742,7.525,1.12,11.285.3,2.909.586,5.814.825,8.718.119,1.5.233,3,.327,4.507.109,1.763.2,3.532.249,5.3h0c.036,1.12.057,2.235.057,3.356v1.9q0,1.82-.1,3.63-.1,2.329-.316,4.668c-.161,1.7-.446,3.547-1.639,4.74-.073.073-.15.14-.228.207l-1.68-.207a172.565,172.565,0,0,0-34.9-.622c.254-1.753.488-3.5.716-5.259.1-.83.208-1.665.306-2.5q.171-1.432.327-2.863.179-1.556.332-3.112.4-4.009.71-8.023.451-5.855.685-11.732.114-2.806.176-5.617.088-3.485.083-6.976,0-3.392-.057-6.794c0-.747-.031-1.494-.093-2.235a14.187,14.187,0,0,0-.275-1.986,25.871,25.871,0,0,0-1.556-4.4c-.114-.27-.223-.519-.332-.8-.062-.14-.119-.285-.176-.425,2.987-2.661,5.114-6.224,7.157-9.73,3.314-5.648,6.706-11.545,7.261-18.069s-2.687-13.853-8.92-15.844a43.32,43.32,0,0,0-5.238-.97c-1.649-.29-5.088-.949-7-2.132q-1.556,1.6-3.112,3.138a11.488,11.488,0,0,1,1.125-4.517l.737.036a1.405,1.405,0,0,1-.083-.519,2.725,2.725,0,0,1,1.2-1.878c2.443-2.074,6.286-2.536,7.826-5.342a38.982,38.982,0,0,0,1.271-3.781c1.488-3.49,5.762-4.777,8.334-7.567s3.216-6.742,5.3-9.854a14.843,14.843,0,0,1,6.224-5.186c.207-.1.42-.2.633-.285,4.3-1.841,9.418-2.261,13.879-2.251,1.732,0,6.224.052,8.423.928a2.76,2.76,0,0,1,.959.586C698.38,476.836,694.734,482.224,693,484.071Z" transform="translate(-322.697 -300.86)"/><path class="d" d="M633.709,541.446a31.574,31.574,0,0,1,24.241,2.526,22.928,22.928,0,0,1,9.138,8.7c3.086,5.6,2.951,12.354,2.733,18.749-.109,3.2-.249,6.514-1.66,9.387-1.634,3.325-4.714,5.607-7.857,7.474a21.907,21.907,0,0,1-6.39,2.764c-3.485.757-7.105.114-10.616-.519-3.817-.705-7.914-1.556-10.565-4.4a18.045,18.045,0,0,1-3.247-5.887q-1.81-4.538-3.63-9.066c-2.1-5.243-2.811-9.605-.036-14.714,1.26-2.329,2.8-4.507,4.045-6.851C630.488,548.422,632.718,541.752,633.709,541.446Z" transform="translate(-314.894 -333.273)"/><path class="e" d="M617.27,687.188V702.7a86.768,86.768,0,0,1-33.571,6.638H443.828c-.073.073-.15.14-.228.208l-1.68-.208h-248.8a108.377,108.377,0,0,1-56.085-15.227V670.431L256.689,656.62h.093l69.684,5.9,18.033,1.556,9.367.794,19.387,1.644,9.973.845,14.522,1.234,2.043.171,10.466.887,14.2,1.167,19.967,1.691,33.286,2.827,23.416,1.986,38.452,3.262,7.313.617.788.067.685.057,9.657.819,10.6.9,1.229.1Z" transform="translate(-80.484 -389.359)"/><path class="f" d="M619.422,549.365,469.464,523.77l-5.814,29.4,68.74,8.231,21.165,2.65,58.222-11.467Z" transform="translate(-223.185 -252.106)"/><path class="f" d="M642.33,726.789l75.129-14.122a2.593,2.593,0,0,1,3.081,2.557h0a2.593,2.593,0,0,1-2.121,2.557l-73.371,13.739Z" transform="translate(-323.718 -416.316)"/><path class="c" d="M650.9,644.988a19.377,19.377,0,0,0,6.815-1.623c2.593-1.291,4.611-3.516,7.012-5.155,5.28-3.63,12.344-4.118,18.4-2.033a29.633,29.633,0,0,1,14.641,11.882c2.349,3.553,4.113,8.086,2.453,12.006a15.827,15.827,0,0,1-2.137,3.34l-4.325,5.653a15.042,15.042,0,0,1-2.935,3.159,12.474,12.474,0,0,1-5.612,1.95c-5.264.767-10.622.332-15.927.685-9.112.607-18.012,3.542-27.145,3.444a81.822,81.822,0,0,1-15.559-2.173l-22.7-4.668c-3.952-.809-8.417-1.992-10.279-5.575a12.928,12.928,0,0,1-1.089-5.3c-.27-5,0-10.559,3.464-14.164,3.257-3.382,8.407-4.45,12.3-6.95,4.761-3.065,6.333-2.075,11.353.228A62.237,62.237,0,0,0,650.9,644.988Z" transform="translate(-299.698 -378.925)"/><path class="g" d="M650.9,644.988a19.377,19.377,0,0,0,6.815-1.623c2.593-1.291,4.611-3.516,7.012-5.155,5.28-3.63,12.344-4.118,18.4-2.033a29.633,29.633,0,0,1,14.641,11.882c2.349,3.553,4.113,8.086,2.453,12.006a15.827,15.827,0,0,1-2.137,3.34l-4.325,5.653a15.042,15.042,0,0,1-2.935,3.159,12.474,12.474,0,0,1-5.612,1.95c-5.264.767-10.622.332-15.927.685-9.112.607-18.012,3.542-27.145,3.444a81.822,81.822,0,0,1-15.559-2.173l-22.7-4.668c-3.952-.809-8.417-1.992-10.279-5.575a12.928,12.928,0,0,1-1.089-5.3c-.27-5,0-10.559,3.464-14.164,3.257-3.382,8.407-4.45,12.3-6.95,4.761-3.065,6.333-2.075,11.353.228A62.237,62.237,0,0,0,650.9,644.988Z" transform="translate(-299.698 -378.925)"/><path class="c" d="M756.3,638.136c-6.369,2.464-12.774,4.938-19.444,6.405-11.182,2.464-22.882,2.075-33.976,4.891-5.861,1.494-11.685,3.9-17.706,3.413a53.063,53.063,0,0,1-7.909-1.66c-14.714-3.63-31.44-2.453-43.389,6.882a54,54,0,0,0-10.466,11.41,7.624,7.624,0,0,0,3.065,11.348,44.923,44.923,0,0,0,14.719,3.926c6.81.6,13.65-.363,20.424-1.328,10.051-1.426,20.107-2.858,30.133-4.46,3.6-.576,7.2-1.172,10.819-1.629,26.051-3.293,52.574.711,78.692-2.038a24.041,24.041,0,0,0,7.728-1.769c6.078-2.852,9.086-10.373,7.831-16.98s-6.1-12.1-11.929-15.471c-4.886-2.837-10.155-3.983-15.6-5.186C764.243,634.713,761.162,636.269,756.3,638.136Z" transform="translate(-313.934 -379.184)"/><path class="h" d="M925.612,543.911c2.873,3.765,3.485,8.817,3.174,13.531s-1.431,9.377-1.6,14.112c-.228,6.493,1.338,12.966,1.074,19.438a55.913,55.913,0,0,1-2.531,13.313c-1.5,5.129-3.667,10.642-8.4,13.106-6.286,3.273-19.469,1.432-26.082,3.994.6-3.75,6.369-9.18,6.97-12.93a24.144,24.144,0,0,0,.389-7.857,17.378,17.378,0,0,0-4.823-8.7,25.45,25.45,0,0,0-13.728-7.78c-5.264-.954-18.152-.171-22.364,3.153-.519-3.433,9.128-6.742,12.52-7.484,1.691-.379,3.63-.166,4.984-1.24,2.593-2.033.711-6.084.835-9.335.1-2.593,1.613-4.969,1.919-7.562.519-4.149-2.189-8.376-1.125-12.447a32.281,32.281,0,0,1,1.877-4.258c1.846-4.383,1.037-9.382.052-14.039-.612-2.925-1.208-6.224.42-8.718,1.509-2.329,5.793,5.964,8.537,5.581,9.061-1.271,17.26-7.987,24.578-2.489,3.729,2.8,4.216,5.705,5.7,9.7C919.44,538.808,923.19,540.758,925.612,543.911Z" transform="translate(-427.375 -324.458)"/><path class="d" d="M928.612,540.657c2.873,3.765,3.485,8.817,3.174,13.531s-1.431,9.377-1.6,14.112c-.228,6.493,1.338,12.966,1.074,19.438a55.913,55.913,0,0,1-2.531,13.313c-1.5,5.129-3.667,10.642-8.4,13.106-6.286,3.273-19.47,1.432-26.082,3.994.6-3.75,6.369-9.18,6.97-12.93a24.148,24.148,0,0,0,.389-7.857,17.378,17.378,0,0,0-4.823-8.7,25.451,25.451,0,0,0-13.728-7.78c-5.264-.954-18.152-.171-22.363,3.153-.519-3.433,9.128-6.742,12.52-7.484,1.691-.379,3.63-.166,4.984-1.24,2.593-2.033.711-6.084.835-9.335.1-2.593,1.613-4.969,1.919-7.562.519-4.149-2.189-8.376-1.125-12.447a32.288,32.288,0,0,1,1.877-4.258c1.846-4.382,1.037-9.382.052-14.039-.612-2.925-1.208-6.224.42-8.718,1.509-2.329,4.46-3.21,7.2-3.6a35.485,35.485,0,0,1,25.932,6.69c3.729,2.8,4.216,5.7,5.7,9.7C922.44,535.553,926.19,537.5,928.612,540.657Z" transform="translate(-428.82 -321.203)"/><path class="f" d="M329.789,500.816l28.2,104.214a6.509,6.509,0,0,0,5.658,4.777L490.565,622a6.5,6.5,0,0,0,6.939-8.028l-30.88-125.707a6.5,6.5,0,0,0-6.8-4.932l-124.26,9.294a6.5,6.5,0,0,0-5.772,8.189Z" transform="translate(-173.162 -305.935)"/><ellipse class="i" cx="13.951" cy="14.133" rx="13.951" ry="14.133" transform="translate(394.271 186.951)"/><path class="i" d="M830.846,479.1s2.941,8.744-5.736,12.421l-1.11,1.94,5.435,5.363s6.7-12.224,5.975-16.565C835.41,482.261,834.373,477.853,830.846,479.1Z" transform="translate(-411.167 -303.801)"/><circle class="j" cx="13.453" cy="13.453" r="13.453" transform="translate(396.371 188.309)"/><path d="M830.274,464.127l-2.137-3.527-3.112-.441c.664-11.612-2.349-15.072-2.349-15.072l-.7-.067-3.05-.3-5.736-5.954V437.08c8.06.96,12.515,4.787,14.921,9.273C832.364,454.226,830.274,464.127,830.274,464.127Z" transform="translate(-405.964 -283.68)"/><path class="k" d="M822.026,444.453v2.137l-3.05-.3-5.736-5.954S822.114,442.326,822.026,444.453Z" transform="translate(-405.988 -285.249)"/><path class="k" d="M844.147,472.753l-2.137-3.527V455C846.237,462.852,844.147,472.753,844.147,472.753Z" transform="translate(-419.837 -292.306)"/><ellipse class="i" cx="7.484" cy="13.65" rx="7.484" ry="13.65" transform="translate(364.835 187.393) rotate(-30)"/><path class="j" d="M747.451,506.163c3.771,6.53,8.4,10.891,4.818,12.966s-14,1.037-17.774-5.5-.348-15.559,3.231-17.634S743.675,499.618,747.451,506.163Z" transform="translate(-367.292 -311.832)"/><path class="h" d="M758.045,393.193c0,20.865-14.278,40.972-35.143,40.972a37.782,37.782,0,1,1,0-75.565C743.767,358.621,758.045,372.323,758.045,393.193Z" transform="translate(-344.315 -245.902)"/><circle class="c" cx="37.783" cy="37.783" r="37.783" transform="translate(340.805 111.681)"/><path class="l" d="M704.927,351.524c4.5,1.654,7.157,6.3,11.192,8.889,5.705,3.63,13.132,2.692,19.646.9,3.63-.991,7.427-2.2,11-1.1a3.113,3.113,0,0,0,1.675.239c.778-.223,1.162-1.084,1.416-1.852,4.419-13.173,2.432-28.094-4.237-40.282a26.039,26.039,0,0,0-6.628-8.366,27.648,27.648,0,0,0-7.531-3.8,75.2,75.2,0,0,0-14.978-3.7,9.305,9.305,0,0,0-2.733-.088,11.446,11.446,0,0,0-3.485,1.478,35.672,35.672,0,0,1-15.486,4.206c-7.261.275-15.559-1.437-21.155,3.221-6.742,5.586-5.062,16.482-9.434,24.065-2.894,5.015-8.474,8.656-9.393,14.366a13.263,13.263,0,0,0,.327,5.223,21.252,21.252,0,0,0,19.708,15.751,7.479,7.479,0,0,0,4.025-.825,9.1,9.1,0,0,0,2.121-2.017C686.915,360.8,693.709,347.4,704.927,351.524Z" transform="translate(-329.659 -218.802)"/><path class="h" d="M749.842,391.48c-.254.768-.638,1.629-1.416,1.852a3.111,3.111,0,0,1-1.675-.239c-3.573-1.1-7.391.109-11,1.1-6.519,1.794-13.962,2.754-19.646-.9-4.04-2.593-6.7-7.261-11.2-8.889-11.218-4.149-18.012,9.273-23.966,16.306a9.1,9.1,0,0,1-2.121,2.017,7.479,7.479,0,0,1-4.025.825A21.307,21.307,0,0,1,655.093,387.8c-.119-.519-.223-1.037-.3-1.556a.251.251,0,0,1-.026.135,13.263,13.263,0,0,0,.327,5.223A21.257,21.257,0,0,0,674.8,407.355a7.479,7.479,0,0,0,4.025-.825,9.1,9.1,0,0,0,2.121-2.017c5.954-7.033,12.748-20.434,23.966-16.306,4.5,1.654,7.157,6.3,11.2,8.889,5.705,3.63,13.127,2.692,19.646.9,3.63-.991,7.422-2.2,11-1.1a3.113,3.113,0,0,0,1.675.239c.778-.223,1.162-1.084,1.416-1.852a46.829,46.829,0,0,0,2.323-16.731,46.056,46.056,0,0,1-2.323,12.93Z" transform="translate(-329.645 -255.506)"/></g></svg>