<svg xmlns="http://www.w3.org/2000/svg" xmlns:xlink="http://www.w3.org/1999/xlink" width="405.999" height="239.837" viewBox="0 0 405.999 239.837"><defs><style>.a,.c{fill:#2d93ad;}.a,.f{opacity:0.2;}.b,.f{fill:#f5f5f5;}.d{fill:none;stroke:#535461;stroke-miterlimit:10;stroke-width:2px;}.e{fill:#6c63ff;}.f{stroke:#2d93ad;}.g{fill:url(#a);}.h{fill:#535461;}.i{fill:#fff;}.j{fill:url(#c);}.k{fill:url(#d);}.l{fill:#f7c4a7;}.m{opacity:0.05;}.n{fill:#575988;}.o{opacity:0.1;}.p{fill:#f3b5b7;}.q{fill:#dddbe2;}.r{fill:#fc6681;}</style><linearGradient id="a" x1="0.5" y1="1" x2="0.5" gradientUnits="objectBoundingBox"><stop offset="0" stop-color="gray" stop-opacity="0.251"/><stop offset="0.54" stop-color="gray" stop-opacity="0.122"/><stop offset="1" stop-color="gray" stop-opacity="0.102"/></linearGradient><linearGradient id="c" x1="0.5" y1="1" x2="0.5" y2="0" xlink:href="#a"/><linearGradient id="d" x1="0.5" y1="1" x2="0.5" y2="0" xlink:href="#a"/></defs><g transform="translate(0.001 0)"><path class="a" d="M141.331,144.027a29.262,29.262,0,0,0-9.358.909,15.586,15.586,0,0,0-10.64,17.584c1.242,7,6.353,13.1,11.655,18.681s11.047,11.09,13.955,17.757c1.45,3.327,2.128,7.054.654,10.377-2.273,5.122-9.127,7.983-15.707,8.578s-13.187-.564-19.79-.952a24.877,24.877,0,0,0-8.23.568,21.778,21.778,0,0,0-7.446,4.217c-8.563,6.811-15.417,16.1-14.308,25.865,1.254,11.063,12.439,19.806,24.689,24.5,4.056,1.568,8.347,2.814,11.917,5.032,9.405,5.851,11.518,16.824,10.581,26.507s-4.127,19.379-2.351,28.976c2.089,11.165,11.333,21.252,23.8,25.963,11.11,4.2,25.014,3.919,34.878-2a42.206,42.206,0,0,0,11.608-11.063,89.25,89.25,0,0,0,11.541-19.986c1.376-3.327,2.669-6.905,5.878-9.217a20.2,20.2,0,0,1,7.011-2.837c7.571-1.865,15.546-2.375,23.188-4.036s15.331-4.769,19.485-10.3c5.878-7.838,3.135-17.878,3.163-27.1.047-21.029,15.327-39.851,20.966-60.351,1.842-6.7,2.528-14.108-1.587-20.084-2.794-4.056-7.509-6.983-12.462-9.245-10.9-4.973-23.286-7.187-35.47-9.343-16.934-2.994-37.5-3.382-50.62-13.07C175.739,150.662,158.508,144.027,141.331,144.027Z" transform="translate(-82 -144)"/><ellipse class="b" cx="182.229" cy="48.798" rx="182.229" ry="48.798" transform="translate(41.54 142.24)"/><path class="c" d="M1008.6,330.86a33.528,33.528,0,0,0-6.113,34.878c7.928,20.837-13.591,55.488-13.591,55.488s.231-.035.658-.11c28.839-5.095,43.171-38.076,27.134-62.581C1010.732,349.428,1005.838,338.753,1008.6,330.86Z" transform="translate(-633.495 -257.631)"/><path class="d" d="M1008.6,330.86s-7.928,17.212,0,31.253,1.36,53.45-19.7,59.113" transform="translate(-633.495 -257.631)"/><path class="e" d="M1028.063,475.518s-16.024-2.551-17.482,11.808-30.81,16.35-30.81,16.35l.549.364c24.234,15.907,47.419,10.134,43.892-10.973C1022.929,485.2,1023.035,477.309,1028.063,475.518Z" transform="translate(-627.943 -345.493)"/><path class="f" d="M1028.063,475.518s-16.024-2.551-17.482,11.808-30.81,16.35-30.81,16.35l.549.364c24.234,15.907,47.419,10.134,43.892-10.973C1022.929,485.2,1023.035,477.309,1028.063,475.518Z" transform="translate(-627.943 -345.493)"/><path class="d" d="M1028.063,475.79s-12.439,2.743-11.416,14.038-18.47,24.865-36.877,14.108" transform="translate(-627.943 -345.765)"/><path class="g" d="M599.52,367.111H574.345a8.4,8.4,0,0,0,.878-3.75V248.71a8.43,8.43,0,0,0-8.43-8.43H371.89a8.43,8.43,0,0,0-8.434,8.43V363.365a8.394,8.394,0,0,0,.878,3.75H338.27a2.23,2.23,0,0,0-2.23,2.23v1.8A12.47,12.47,0,0,0,348.51,383.6h240.77a12.47,12.47,0,0,0,12.47-12.47v-1.8a2.23,2.23,0,0,0-2.23-2.222Zm-155.145,7.132-2.148-2.449h53.579l-2.391,2.453Z" transform="translate(-236.485 -202.549)"/><path class="h" d="M9.115,0H197.85a9.115,9.115,0,0,1,9.115,9.115V119.421a9.115,9.115,0,0,1-9.115,9.115H9.115A9.115,9.115,0,0,1,0,119.421V9.115A9.115,9.115,0,0,1,9.115,0Z" transform="translate(129.366 39.354)"/><path class="i" d="M0,0H197.814V105.007H0Z" transform="translate(133.72 58.09)"/><circle class="i" cx="1.744" cy="1.744" r="1.744" transform="translate(230.885 47.195)"/><path class="h" d="M504.334,560.73l-6.8,6.972H449.607l-6.141-6.972H345.909a2.179,2.179,0,0,0-2.179,2.179v1.756a12.188,12.188,0,0,0,12.188,12.188H591.228a12.188,12.188,0,0,0,12.188-12.188v-1.756a2.179,2.179,0,0,0-2.179-2.179Z" transform="translate(-241.161 -397.418)"/><path class="g" d="M439.049,301.65H355.6a7.646,7.646,0,0,0-7.654,7.634V424.892a7.646,7.646,0,0,0,7.654,7.634h83.445a7.646,7.646,0,0,0,7.654-7.634V309.284a7.646,7.646,0,0,0-7.654-7.634Z" transform="translate(-243.728 -239.869)"/><path class="h" d="M7.838,0H88.567a7.838,7.838,0,0,1,7.838,7.838V120.31a7.838,7.838,0,0,1-7.838,7.838H7.838A7.838,7.838,0,0,1,0,120.31V7.838A7.838,7.838,0,0,1,7.838,0Z" transform="translate(105.394 63.349)"/><path class="i" d="M0,0H86.608V103.906H0Z" transform="translate(110.293 75.47)"/><circle class="i" cx="1.176" cy="1.176" r="1.176" transform="translate(152.029 68.052)"/><circle class="i" cx="3.527" cy="3.527" r="3.527" transform="translate(149.678 181.7)"/><path class="j" d="M345.04,401.65H302.194a4.236,4.236,0,0,0-4.244,4.229V499.7a4.236,4.236,0,0,0,4.244,4.229H345.04a4.236,4.236,0,0,0,4.244-4.228V405.878a4.236,4.236,0,0,0-4.244-4.228Z" transform="translate(-213.322 -300.68)"/><path class="h" d="M4.311,0H46.243a4.311,4.311,0,0,1,4.311,4.311V96.8a4.311,4.311,0,0,1-4.311,4.311H4.311A4.311,4.311,0,0,1,0,96.8V4.311A4.311,4.311,0,0,1,4.311,0Z" transform="translate(85.016 101.754)"/><path class="i" d="M0,0H43.108V82.3H0Z" transform="translate(88.739 111.16)"/><circle class="i" cx="0.392" cy="0.392" r="0.392" transform="translate(104.806 106.065)"/><path class="i" d="M.392,0H8.23a.392.392,0,0,1,0,.784H.392A.392.392,0,0,1,.392,0Z" transform="translate(107.158 106.065)"/><circle class="i" cx="2.743" cy="2.743" r="2.743" transform="translate(107.354 194.632)"/><path class="d" d="M282.556,592.877s-5.2-17.635.976-30.622a27.86,27.86,0,0,0,2.265-17.482,46.859,46.859,0,0,0-2.473-8.2" transform="translate(-202.717 -382.726)"/><path class="c" d="M285.288,509.549c0,2.163-3.919,8.43-3.919,8.43s-3.919-6.27-3.919-8.43a3.919,3.919,0,0,1,7.838,0Z" transform="translate(-200.856 -363.911)"/><path class="c" d="M301.789,536.575c-1.176,1.814-7.869,4.95-7.869,4.95s.121-7.391,1.3-9.206a3.919,3.919,0,1,1,6.572,4.256Z" transform="translate(-210.871 -378.96)"/><path class="c" d="M298.822,587.017c-1.932.972-9.292.3-9.292.3s3.837-6.317,5.765-7.289a3.919,3.919,0,0,1,3.527,6.991Z" transform="translate(-208.202 -408.942)"/><path class="c" d="M289.668,627c-1.74,1.285-9.108,1.865-9.108,1.865s2.712-6.874,4.452-8.159A3.919,3.919,0,0,1,289.668,627Z" transform="translate(-202.747 -433.489)"/><path class="c" d="M270.856,549.258c1.568,1.5,8.774,3.068,8.774,3.068s-1.767-7.175-3.319-8.68a3.919,3.919,0,1,0-5.455,5.616Z" transform="translate(-196.041 -386.275)"/><path class="c" d="M258.873,594.474c1.932.972,9.292.3,9.292.3s-3.837-6.317-5.765-7.289a3.919,3.919,0,1,0-3.527,6.991Z" transform="translate(-188.157 -413.385)"/><path class="c" d="M256.218,641.6c1.74,1.285,9.108,1.865,9.108,1.865s-2.712-6.874-4.452-8.159a3.919,3.919,0,0,0-4.656,6.294Z" transform="translate(-187.07 -442.368)"/><path class="k" d="M800.516,444.915c-4.338-5.263-9.593-11.31-8.857-18.313.6-5.671-.831-10.914-.549-16.6.392-8.085-1.23-14.414-7.054-19.595-3.4-3.029-9.088-5.408-10.781-4.8-3.355,1.2-7.015.741-10.467,1.568a10.4,10.4,0,0,0-5.447,2.743c-2.175,1.959-2.21,4.7-1.219,7.622a12.874,12.874,0,0,0,6.36,18.058c-2.418,1.011-4.507,3.339-5.322,8.065a55.132,55.132,0,0,1-2.559,9.527,15.48,15.48,0,0,1-1.568.631c.118.047.239.078.357.121-.255.1-.505.2-.784.282a8.313,8.313,0,0,0,1.43.415A54.558,54.558,0,0,1,747,447.462s-7.309,1.615-10.15-1.211c0,0,.462.541,1.089,1.352-2.779-1.152-7.34-3.033-11.239-4.581-2.829-1.125-3.554,0-3.527,1.568a5.221,5.221,0,0,0-1.959.658,19.075,19.075,0,0,0-2.622-1.411c-1.622-.392-6.9-3.229-12.18,6.454-3.072,5.631-10.949,15.911-17,23.513-11.776,5.416-27.107,12.274-32.805,14h-3.652c-.478-.784-.811-1.278-.811-1.278l-.282.188-.121-.188s-7.172,4.965-14.453,5a13.717,13.717,0,0,1-3.072-.392,29.581,29.581,0,0,0-7.391-1.176c-1.995-.035-3.135.439-3.825,1.332h0a3.5,3.5,0,0,0-.255.368h0a4.319,4.319,0,0,0-.212.392h0c-.063.141-.125.29-.18.443a.909.909,0,0,0,.227.764,4.088,4.088,0,0,0,.317.392l.2.219a32.382,32.382,0,0,0,4.664,3.609c.6.392,1.234.823,1.9,1.25l1.258.784,1.125.7.451.278.5.306.9.545.533.321,1.007.6.815.482c2.132,1.258,4.256,2.477,6.172,3.558l1.34.8.129.071.862.482,1.489.827,1.023.564.478.263.513.282.1.055.893.486a1.293,1.293,0,0,0,1.042-.282c.259-1.1.89-3.449,1.568-3.629s3.613-5.31,4.44-8.743h7.924a34.918,34.918,0,0,0,4.64-.713c-2.046,1.458-4.072,2.375-5.647,1.983-3.331-.827-6.486,1.2-6.8,3.206a.516.516,0,0,1-.039.125c-.012.043-.02.082-.027.121s-.023.1-.031.149a.671.671,0,0,0,0,.125v.541a.792.792,0,0,0,.039.161c.016.055,0,.071.027.1a1.979,1.979,0,0,0,.086.208l.02.051a2.11,2.11,0,0,0,.149.247l.063.082a1.655,1.655,0,0,0,.129.161l.09.09c.047.047.1.094.149.141l.11.09.176.129.129.086.212.125.141.074.266.125.133.059c.141.059.29.114.451.165.255.082.556.168.9.255l.341.082.5.114.263.059q.509.11,1.082.219l.529.1.431.078.992.172c.619.106,1.266.212,1.959.314l1.709.259,2.226.317.494.067.784.11,1.148.153.784.1h0l2.034.259.635.078,1.281.157c1.685.2,3.315.392,4.816.56l1.736.2.878.1.392.039,1.05.114.584.063.721.074,1.015.106h.11l.651.067h0a.592.592,0,0,0,.654-.576h0v-.067a.572.572,0,0,0,.094-.306,13.325,13.325,0,0,1,.365-2.869c.043-.161.094-.325.149-.49l.063-.188c.071-.2.141-.392.223-.607a4.363,4.363,0,0,0,.153-.447.552.552,0,0,1,.043-.145c.016-.051.039-.161.055-.243.815-2.786-.169-7.983-.451-10.025a10.894,10.894,0,0,0-.447-1.92.784.784,0,0,0,.153,0,4.621,4.621,0,0,0,1.176-.639c5.988-2.136,11.036-4.577,12.631-7.023a10.937,10.937,0,0,1,7.712.807c3.1,1.54,26.551,9.194,37.469,12.729,1.959,1.689,3.5,2.677,4.346,2.6,0,0,13.9,2.249,19.489-2.14.5.345.811.529.811.529s8.12-4.033,9.339-9.28c.392-1.7.749-4.209,1.113-6.983a10.153,10.153,0,0,0,2.947-7.136c.255-8.81,3.668-18.873,6.2-27.824,3.072.243,4.26-.337,7.078-1.728l-.125-.161C800.163,445.079,800.34,445,800.516,444.915ZM753.963,458.11l-1.568-.521a12.929,12.929,0,0,0,1.352-2.249Zm-8.735,3.707,9.405,5.643.082,1.148a8.231,8.231,0,0,0,.078,2.626c-4.146-3.684-9-8.155-9.57-9.421Zm-3.841-8.23c-1.027-.423-1.877-.807-2.461-1.125.784.055,1.528.1,2.179.137a4.873,4.873,0,0,1,.282.988Zm-25.191,9.2s1.622-3.629,5.279,2.422c.568.941,1.615,2.438,3,4.291l-10.644-1.423a15.28,15.28,0,0,0,2.367-5.287Z" transform="translate(-410.586 -290.863)"/><path class="l" d="M895.547,536.3s-7.446-3.135-13.324-5.486-2.351,5.486-2.351,5.486,9.8,2.743,9.8,3.135,8.23.784,8.23.784Z" transform="translate(-566.556 -378.96)"/><path class="m" d="M895.547,536.3s-7.446-3.135-13.324-5.486-2.351,5.486-2.351,5.486,9.8,2.743,9.8,3.135,8.23.784,8.23.784Z" transform="translate(-566.556 -378.96)"/><path class="n" d="M947.77,463.686s-13.324-7.054-15.676,6.662a56,56,0,0,1-9.8,23.122s-7.054,1.568-9.8-1.176c0,0,6.662,7.838,3.527,8.622,0,0,7.054,5.095,10.189,3.527s5.486-12.149,6.662-14.892S938.365,462.9,947.77,463.686Z" transform="translate(-587.036 -337.301)"/><path class="o" d="M947.77,463.686s-13.324-7.054-15.676,6.662a56,56,0,0,1-9.8,23.122s-7.054,1.568-9.8-1.176c0,0,6.662,7.838,3.527,8.622,0,0,7.054,5.095,10.189,3.527s5.486-12.149,6.662-14.892S938.365,462.9,947.77,463.686Z" transform="translate(-587.036 -337.301)"/><path class="l" d="M983.5,438.6s8.23,9.405,8.622,17.243,9.405-8.23,10.189-8.622-7.838-13.716-8.622-18.027S983.5,438.6,983.5,438.6Z" transform="translate(-630.212 -316.923)"/><path class="l" d="M907.943,320.75l-5.193,4.7,2.449,9.9,6.662-6.27-.784-6.27Z" transform="translate(-548.972 -195.051)"/><path class="l" d="M625.513,498.5H616.5l3.527,8.622,8.622-2.351Z" transform="translate(-374.9 -303.143)"/><path class="o" d="M659.745,639.33s-9.335,6.5-17.31,4.479-10.142-1.266-11.071,1.344c-.858,2.4,22.275,15.107,25.963,17.114a.423.423,0,0,0,.615-.274c.251-1.066.858-3.351,1.509-3.527.846-.227,4.7-7.446,4.491-10.283S659.745,639.33,659.745,639.33Z" transform="translate(-416.06 -445.215)"/><path class="p" d="M658.745,639.33s-9.335,6.5-17.31,4.479-10.142-1.266-11.071,1.344c-.858,2.4,22.275,15.107,25.963,17.114a.423.423,0,0,0,.615-.274c.251-1.066.858-3.351,1.509-3.527.846-.227,4.7-7.446,4.491-10.283S658.745,639.33,658.745,639.33Z" transform="translate(-415.452 -445.215)"/><path class="n" d="M784.567,594.027,758.311,590.5s-42.716,20.378-47.811,20.77l1.176,9.014h7.838c3.135,0,33.7-6.662,38.013-13.324a10.5,10.5,0,0,1,7.446.784c3.919,1.959,41.54,14.108,41.54,14.108Z" transform="translate(-464.198 -415.521)"/><path class="o" d="M784.567,594.027,758.311,590.5s-42.716,20.378-47.811,20.77l1.176,9.014h7.838c3.135,0,33.7-6.662,38.013-13.324a10.5,10.5,0,0,1,7.446.784c3.919,1.959,41.54,14.108,41.54,14.108Z" transform="translate(-464.198 -415.521)"/><path class="l" d="M691.811,486.5l-4.311,5.486,4.311,2.351,6.27-4.7Z" transform="translate(-418.076 -295.845)"/><path class="n" d="M852.919,564.2s-14.108-12.078-15.084-14.269-24.105-17.083-25.673-17.474-6.662-3.135-11.757,6.27S776.5,570.863,776.5,570.863s5.878,8.23,7.838,7.838,23.905-18.811,25.473-27.824c0,0,1.568-3.527,5.095,2.351s26.257,34.094,30.567,33.7c0,0,16.851,2.743,20.378-3.919S852.919,564.2,852.919,564.2Z" transform="translate(-504.333 -379.817)"/><path class="q" d="M969.8,467.088s-4.9,2.155-5.29,11.169-9.013,24.3-9.013,24.3l.784,18.027s9.405,9.405,10.189,15.284,7.446,9.8,7.446,9.8,7.838-3.919,9.013-9.013,1.959-17.635,3.919-22.338.784-34.094.784-34.094l-5.878-10.189-3.135-3.527-8.23,9.405S965.885,469.831,969.8,467.088Z" transform="translate(-613.185 -340.115)"/><path class="o" d="M957.027,515.535s-1.176-14.108,2.351-17.243l7.054-19.986s2.547-9.6,2.155-10.385-9.209,7.642-9.209,7.642l-5.878,20.77,1.568,21.946Z" transform="translate(-611.968 -340.948)"/><path class="n" d="M956.027,515.232s-1.176-14.108,2.351-17.243L965.432,478s2.743-9.8,2.351-10.581-9.405,7.838-9.405,7.838L952.5,496.03l1.568,21.946Z" transform="translate(-611.36 -340.645)"/><path class="l" d="M907.368,550.221s-19.595-6.27-20.77-7.838-13.716-11.757-18.027-4.7,16.068,9.013,16.068,9.013l20.77,12.54Z" transform="translate(-559.958 -381.904)"/><path class="o" d="M741.011,642.792l-5.8-1.042s-9.5,12.168-14.449,10.934-9.5,4.091-4.276,5.8c4.722,1.544,25.116,3.7,29,4.1a.572.572,0,0,0,.631-.556,12.481,12.481,0,0,1,.9-4.417c1.046-2.567,0-8.081-.29-10.189a10.121,10.121,0,0,0-1.14-3.527Z" transform="translate(-466.426 -446.687)"/><path class="p" d="M740.776,643.762l-5.8-1.042s-9.5,12.168-14.441,10.938-9.5,4.091-4.276,5.8c4.722,1.544,25.116,3.7,29,4.1a.572.572,0,0,0,.631-.556,12.477,12.477,0,0,1,.866-4.413c1.046-2.567,0-8.081-.29-10.189a10.122,10.122,0,0,0-1.14-3.527Z" transform="translate(-466.289 -447.277)"/><circle class="o" cx="12.5" cy="12.5" r="12.5" transform="translate(343.998 100.918)"/><circle class="l" cx="12.5" cy="12.5" r="12.5" transform="translate(342.998 100.918)"/><path class="n" d="M993.013,465.5s14.892,5.095,14.892,15.676-8.23,27.432-8.622,41.148-21.946,11.757-21.946,11.757-3.135-46.243,0-49.77S994.581,467.068,993.013,465.5Z" transform="translate(-625.617 -339.507)"/><path class="o" d="M978.271,505.57s-5.486,24.3-18.419,19.986c0,0-6.662,9.8-1.959,14.108,0,0,11.365,2.743,18.811-4.7s12.932-10.189,14.108-19.2,1.959-21.554-1.959-20.378S978.271,505.57,978.271,505.57Z" transform="translate(-613.618 -357.631)"/><path class="n" d="M979.271,504.57s-5.486,24.3-18.419,19.986c0,0-6.662,9.8-1.959,14.108,0,0,11.365,2.743,18.811-4.7s12.932-10.189,14.108-19.2,1.959-21.554-1.959-20.378S979.271,504.57,979.271,504.57Z" transform="translate(-614.226 -357.023)"/><path class="q" d="M797.53,680a.359.359,0,0,1-.035.11,11.478,11.478,0,0,0-.615,2.073c.094-.306.2-.619.329-.933A5.692,5.692,0,0,0,797.53,680Z" transform="translate(-516.726 -469.947)"/><path class="q" d="M716.544,678.916c-1.615-.529-2.293-1.4-2.32-2.316-.666,1.278-.247,2.712,2.034,3.456,4.722,1.544,25.12,3.7,29,4.1a.572.572,0,0,0,.631-.56h0a.576.576,0,0,0-.513-.584C741.12,682.561,721.2,680.437,716.544,678.916Z" transform="translate(-466.288 -467.879)"/><path class="q" d="M630.923,651.141a4.83,4.83,0,0,1,.392-.831,3.822,3.822,0,0,0-.921,1.521c-.858,2.4,22.275,15.107,25.963,17.114a.423.423,0,0,0,.615-.278h0a.423.423,0,0,0-.208-.47C652.689,665.966,630.076,653.516,630.923,651.141Z" transform="translate(-415.47 -451.892)"/><path class="q" d="M702.5,686.082c-.208.055-.411.333-.6.713l.063-.023c.172-.047.466-.392.823-.9a.761.761,0,0,1-.282.212Z" transform="translate(-458.968 -473.516)"/><path class="o" d="M963.948,418.206c-1.105,2.438-1.336,5.185-2.148,7.74a17.019,17.019,0,0,1-10.491,10.879c4.072,1.622,8.876-.361,12.023-3.652s4.993-7.673,6.76-11.937c4.569,3.072,4.013,10.134,5.549,15.633a17.337,17.337,0,0,0,9.229,11.032,16.526,16.526,0,0,0,14.135-.286c-4.189-5.095-10.154-12.121-9.445-18.924.576-5.51-3.378-9.719-3.108-15.248.392-7.838-2.61-11.819-8.23-16.851-3.284-2.943,1.885-7.093-2.351-5.878-1.666.478-3.421-1.3-5.055-.717-3.237,1.176-6.772.721-10.1,1.5C943.4,395.566,965.563,414.647,963.948,418.206Z" transform="translate(-610.637 -293.518)"/><path class="r" d="M964.948,417.02c-1.105,2.438-1.336,5.185-2.148,7.74a17.019,17.019,0,0,1-10.491,10.879c4.072,1.622,8.876-.361,12.023-3.652s4.993-7.673,6.76-11.937c4.569,3.072,4.013,10.134,5.549,15.633a17.337,17.337,0,0,0,9.229,11.032,16.526,16.526,0,0,0,14.135-.286c-4.189-5.095-9.762-10.945-9.053-17.749.576-5.51-.282-11.173,0-16.7.392-7.838-3.453-15.409-9.076-20.441-3.284-2.943-8.414-3.319-10.052-2.743-3.237,1.176-6.772.721-10.1,1.5C944.4,394.38,966.563,413.461,964.948,417.02Z" transform="translate(-611.245 -292.724)"/></g></svg>