<svg xmlns="http://www.w3.org/2000/svg" xmlns:xlink="http://www.w3.org/1999/xlink" width="246.036" height="209.615" viewBox="0 0 246.036 209.615"><defs><style>.a,.i{opacity:0.1;}.b{fill:#2d93ad;}.c{opacity:0.5;}.d{fill:none;stroke:#fff;stroke-miterlimit:10;}.e{fill:#6c63ff;}.f{fill:url(#a);}.g{fill:#efb7b9;}.h{opacity:0.03;}.j{fill:#e1e7ef;}.k{fill:#444053;}.l{fill:#67647e;}.m{fill:#e4e6ed;}.n{fill:#d8d9e5;}.o{fill:#585268;}</style><linearGradient id="a" x1="0.5" y1="1" x2="0.5" gradientUnits="objectBoundingBox"><stop offset="0" stop-color="gray" stop-opacity="0.251"/><stop offset="0.54" stop-color="gray" stop-opacity="0.122"/><stop offset="1" stop-color="gray" stop-opacity="0.102"/></linearGradient></defs><g transform="translate(-0.008 -0.003)"><g class="a" transform="translate(69.396 0.003)"><path class="b" d="M457.022,24.99c-2.279,1.871-3.3,4.838-4.188,7.65q-2.99,9.465-5.592,19.057c-2.529,9.289-4.825,18.783-9.455,27.234s-11.376,15.456-18.048,22.377L395.7,126.228c-7.427,7.7-15.351,16.594-15.209,27.3.122,9.284,6.611,17.52,14.552,22.314s17.22,6.755,26.3,8.642c4.61.958,9.5,1.9,13.926.305,5.312-1.911,8.774-7.029,13.628-9.91,8.71-5.172,19.746-2.262,29.5.45s21.256,4.769,29.169-1.549c11.483-9.169,6.533-27.642,11.661-41.412,4.867-13.069,18.324-20.584,27.156-31.373,19.731-24.1,11.1-57.569-16.125-71.08-8.923-4.415-17.718-4.188-27.4-4.884C490.8,24.161,467.423,16.446,457.022,24.99Z" transform="translate(-380.492 -21.003)"/></g><g class="c" transform="translate(0.008 15.883)"><path class="b" d="M168.054,213.493s-40.362-20.425-23.113-66.047S99.74,86,99.74,86s-12.233,44.422,10.75,74S142.34,238.7,168.054,213.493Z" transform="translate(-96.488 -86)"/><path class="d" d="M109.8,86a268.186,268.186,0,0,1,25.622,67.889c8.593,38.383,22.582,70.056,42.485,58.881" transform="translate(-106.548 -86)"/></g><g class="c" transform="translate(45.707 56.516)"><path class="b" d="M300.731,346.632s-16.14-23.169,5.272-45.5-7.777-48.82-7.777-48.82-18.409,23-14.014,46.834S280.245,354.531,300.731,346.632Z" transform="translate(-283.534 -252.31)"/><path class="d" d="M317.915,252.31a192.737,192.737,0,0,1-4.422,47.281c-5.644,25.116-6.628,47.735,7,46.56" transform="translate(-303.221 -252.31)"/></g><g class="a" transform="translate(15.24 178.501)"><path class="e" d="M158.92,760.455a9.436,9.436,0,0,0,2.25,4.285l11.4,14.449c.916,1.163,1.9,2.372,3.132,2.688,2.573.682,4.642-2.622,6.841-4.554,7.818-6.87,18.5,3.589,27.339-.41,3.535-1.6,6.4-5.4,10-6.69,9.541-3.42,17.625,11.691,27.476,12.46,3.235.244,6.408-1.085,9.5-2.406l20.616-8.825a12.218,12.218,0,0,1,4.4-1.258c2.536-.044,4.9,1.588,7.286,2.763,9.609,4.735,20.279,2.179,30.149-1.407s19.812-8.2,30.015-7.437c2.656.2,6.164.032,6.89-3.452.432-2.072-5.4.1-6.755-1.016s1.864-5.776.288-5.974c-9.169-1.148-18.512-1.18-27.474,1.71-4.642,1.5-9.208,3.772-13.975,4.239-4.969.489-9.912-1.016-14.791-2.385-12.355-3.464-24.921-6.108-37.535-5.571-22.419.977-44.5,12.035-66.807,8.83a56.852,56.852,0,0,1-18.91-6.333c-3.01-1.625-2.876,4.129-5.947,6.066-1,.63-3.616-5.248-4.4-4.117A5.747,5.747,0,0,0,158.92,760.455Z" transform="translate(-158.832 -751.595)"/></g><path class="f" d="M350.653,218l-35.634-46.665c-2.783-13.1-6.961-13.1-6.961-13.1-28.395-3.821-36.189-8.734-36.189-8.734l-6.352-2.487-.53-.313c-.024-.139-.051-.279-.076-.423s-.049-.335-.068-.5a30.65,30.65,0,0,0,13.926-18.764c.051-.205.1-.415.147-.623a8.024,8.024,0,0,0,3.32-2.959c2.729-4.473.137-10.137.2-15.348.037-3.293,1.173-6.521,1.043-9.812a23.018,23.018,0,0,0-2.172-7.948,9.42,9.42,0,0,0-2.1-3.42c-2.656-2.411-6.956-1.378-10.366-2.565-4.412-1.537-6.467-6.325-9.018-10.176-.977-1.485-2.756-3.054-4.361-2.24-1.884.953-1.373,4.215-3.276,5.131-1.153.555-2.563-.144-3.386-1.112s-1.295-2.182-2.106-3.159a6.191,6.191,0,0,0-6.008-2.013,2.084,2.084,0,0,0-1.141.584c-.608.709-.227,1.764-.186,2.688.144,3.11-3.665,4.838-6.812,5.167s-6.856.369-8.739,2.873c-1,1.327-1.209,3.054-1.881,4.564-1.559,3.5-5.329,5.419-8.642,7.43s-6.724,4.943-6.694,8.764c.029,3.665,3.264,6.633,3.833,10.261.3,1.923-.169,3.909.208,5.822.691,3.508,3.97,5.864,6.995,7.855.205.134.413.269.625.4.054.215.107.428.166.64a30.762,30.762,0,0,0,15.724,19.057c.049.205.1.413.142.625.144.655.279,1.336.4,2.035l-.093.024v-.068l-35.194,8.974a1.524,1.524,0,0,0-.662-.083c-1.441-.117-5.949,1.437-11.209,22.509l-22.546,39.846s-13.083,12.556-3.061,23.21a20.351,20.351,0,0,0,15.29,6.721,21.1,21.1,0,0,0,7.53-1.275s-.181-.279-.459-.772l2.981.364c5.864,6.518,15.851,4.229,15.851,4.229s14.207-.161,14.73-7.591l25.534,7.833.1,1.4h13.408l-.022-.889,28.209-8.5c2.2,4.065,7.574,6.076,7.574,6.076s16.555.7,21.759-2.319a23.25,23.25,0,0,1,7.051-2.714l.144-.015-.034.034,31.874-3.42C367.912,230.55,350.653,218,350.653,218Zm-160.437,11.1-.7-.406a25.923,25.923,0,0,1,3.853-1.139l6.2-7.655,1.073,7.549a14.1,14.1,0,0,0-10.425,1.649Zm119.929-.061a13,13,0,0,0-8.026-2.626l.244-18.583c2.328,1.488,4.283,3.13,4.862,4.713,1.671,4.642,9.743,12.008,9.743,12.008l-4.193,3.445h0l-.652.535c-.176.042-.352.083-.528.13Z" transform="translate(-143.064 -58.496)"/><path class="g" d="M146.156,713.241l6.506.814,3.794-18.705-7.32-4.339-9.487,10.3Z" transform="translate(-105.525 -522.181)"/><path class="h" d="M146.156,713.241l6.506.814,3.794-18.705-7.32-4.339-9.487,10.3Z" transform="translate(-105.525 -522.181)"/><path class="g" d="M497.174,338.21l-15.722,14.1s-30.362,6.777-22.771-2.712c4.3-5.375,3.728-13.533,2.424-19.6a50.836,50.836,0,0,0-2.424-8.063s39.042-23.574,33.621-5.68c-1.608,5.307-1.832,9.4-1.356,12.526C492.085,336.2,497.174,338.21,497.174,338.21Z" transform="translate(-369.262 -239.048)"/><path class="i" d="M496.086,316.258c-1.608,5.307-1.832,9.4-1.356,12.526a30.4,30.4,0,0,1-29.836,1.222,50.837,50.837,0,0,0-2.424-8.063S501.507,298.364,496.086,316.258Z" transform="translate(-373.046 -239.051)"/><path class="g" d="M465.5,186.491a30.273,30.273,0,1,1-8.871-21.5A30.362,30.362,0,0,1,465.5,186.491Z" transform="translate(-329.451 -123.112)"/><path class="j" d="M347.13,403.521v55.57l53.4-4.337L391.589,398.1,368,412.195Z" transform="translate(-262.314 -300.834)"/><path class="i" d="M519.6,495.57l-5.944-16.807h.244c6.235-6.777,3.523-10.843,3.523-10.843h-8.654c-5.509,3.909-1.686,8.974-.388,10.432L505.79,495.57Z" transform="translate(-405.782 -358.727)"/><path class="k" d="M519.6,493.35l-5.944-16.807h.244c6.235-6.777,3.523-10.843,3.523-10.843h-8.654c-5.509,3.909-1.686,8.974-.388,10.432L505.79,493.35Z" transform="translate(-405.782 -357.049)"/><path class="i" d="M552.666,392.2s-1.71,7.926-13.626,18.5c0,0,3.665,1.222,4.2,10.98l4.474,6.108s3.523-12.741,9.758-17.078,0-15.722,0-15.722Z" transform="translate(-430.908 -301.506)"/><path class="j" d="M552.666,390s-1.71,7.926-13.626,18.5c0,0,3.665,1.222,4.2,10.98l4.474,6.108s3.523-12.741,9.758-17.078,0-15.722,0-15.722Z" transform="translate(-430.908 -299.844)"/><path class="i" d="M473.94,419.675s-5.131,4.068-5.409,10.574-2.981,6.506-2.981,6.506-6.777-20.872-8.945-22.771,3.909-9.9,3.909-9.9S463.923,415.338,473.94,419.675Z" transform="translate(-368.261 -310.484)"/><path class="j" d="M473.892,417.457s-5.131,4.065-5.409,10.579-2.981,6.506-2.981,6.506-6.78-20.882-8.957-22.778,3.909-9.9,3.909-9.9S463.875,413.118,473.892,417.457Z" transform="translate(-368.213 -308.806)"/><path class="i" d="M593.4,390.25l6.777,2.712s7.591,4.886,35.241,8.676c0,0,4.065,0,6.777,13.012L676.889,461s16.807,12.46,2.712,24.94l-31.029,3.389s17.891-17.078-9.216-17.62l5.009-4.2s-7.862-7.33-9.487-11.928-14.9-9.758-14.9-9.758l1.627,39.035-24.408,3.792-3.518-72.636a48.234,48.234,0,0,1,.586-10.244C595.181,400.26,596.151,391.533,593.4,390.25Z" transform="translate(-471.987 -300.033)"/><path class="l" d="M594.51,390.25l6.777,2.712s7.591,4.886,35.241,8.676c0,0,4.065,0,6.777,13.012L678,461s16.807,12.46,2.712,24.94l-31.029,3.389s17.891-17.078-9.216-17.62l5.016-4.2s-7.862-7.33-9.487-11.928-14.9-9.758-14.9-9.758l1.627,39.035-24.425,3.789-3.518-72.636a48.234,48.234,0,0,1,.586-10.244C596.291,400.26,597.261,391.533,594.51,390.25Z" transform="translate(-472.826 -300.033)"/><path class="i" d="M244.466,401.34,210.039,410.3s-5.15-3.252-11.385,22.233L176.7,472.109s-12.741,12.46-2.981,23.042a20.069,20.069,0,0,0,21.964,5.4s-11.114-17.347,8.4-21.686l7.33-9.216,33.071,3.794-.833-47.711.926-5.561a55.217,55.217,0,0,0,0-18.155Z" transform="translate(-152.059 -308.413)"/><path class="l" d="M243.346,401.34,208.919,410.3s-5.15-3.252-11.385,22.233l-21.957,39.58s-12.751,12.46-2.978,23.025a20.117,20.117,0,0,0,21.957,5.421s-11.114-17.347,8.4-21.686l7.33-9.216,33.071,3.794-.828-47.711.919-5.561a55.217,55.217,0,0,0,0-18.155Z" transform="translate(-151.21 -308.413)"/><path class="m" d="M228.334,489.08l-3.254,2.438,49.067,12.47v-4.879Z" transform="translate(-170.083 -369.586)"/><path class="m" d="M474.977,485.75l3.252,2.441L425.91,501.472v-4.879Z" transform="translate(-321.846 -367.07)"/><path class="b" d="M212.88,489.08l45.541,10.572,3.252,66.145-39.848-12.47Z" transform="translate(-160.863 -369.586)"/><path class="b" d="M498.844,489.08,450.32,500.194l2.71,66.416,45-13.826Z" transform="translate(-340.292 -369.586)"/><path class="b" d="M489.1,553.35s7.95,4.886,16.308,0l1.627,67.5H493.981Z" transform="translate(-393.17 -423.284)"/><path class="i" d="M489.1,553.35s7.95,4.886,16.308,0l1.627,67.5H493.981Z" transform="translate(-393.17 -423.284)"/><path class="n" d="M339.32,506.75v1.9l44.728,8.945S361.277,509.188,339.32,506.75Z" transform="translate(-279.984 -388.07)"/><path class="n" d="M570.643,502.31v1.9L522.39,514.238S548.681,504.751,570.643,502.31Z" transform="translate(-418.326 -384.714)"/><path class="g" d="M697.87,716.286l-1.415.381s-9.213-8.063-20.958,4.153,3.909,18.194,3.909,18.194,16.125.691,21.19-2.3a22.287,22.287,0,0,1,7.058-2.734,7.213,7.213,0,0,0,3.953-2.231h0a9.433,9.433,0,0,0,2.36-7.779h0a9.433,9.433,0,0,0-6.939-7.725h0A17.875,17.875,0,0,0,697.87,716.286Z" transform="translate(-530.725 -544.728)"/><path class="g" d="M275.274,719.681s10.843-9.758,24.127,6.506-10.3,16.543-10.3,16.543-12.751,2.973-17.62-7.6S275.274,719.681,275.274,719.681Z" transform="translate(-227.594 -546.783)"/><path class="i" d="M785.28,711.976s12.6,3.679,9.9,18.224l7.618-.831,1.608-7.4-3.252-10.3-6.235-2.443Z" transform="translate(-616.987 -541.08)"/><path class="l" d="M786.39,711.976s12.6,3.679,9.9,18.224l7.618-.831,1.608-7.4-3.252-10.3-6.235-2.443Z" transform="translate(-617.826 -541.08)"/><path class="i" d="M465.492,186.45a30.275,30.275,0,0,1-.865,7.212,10.545,10.545,0,0,1-6.123.9c-3.591-.55-6.763-2.687-9.389-5.2s-4.83-5.429-7.364-8.038c-2.3-2.365-5.131-4.576-8.424-4.671-2.99-.088-5.715,1.583-8.6,2.375-3.02.831-9.1-1.437-10.577,1.124-.865,1.505-.559,4.816-1.07,6.6a25.883,25.883,0,0,1-2.328,5.583c-.733,1.288-1.81,2.653-3.289,2.641a3.325,3.325,0,0,1-1.622-.518,30.364,30.364,0,1,1,59.65-8.014Z" transform="translate(-329.439 -123.071)"/><path class="o" d="M392.417,121.566c2.885-.792,5.619-2.463,8.6-2.375,3.293.1,6.13,2.306,8.424,4.671,2.531,2.607,4.735,5.526,7.364,8.038s5.8,4.642,9.389,5.2,7.635-.8,9.5-3.909c2.656-4.442.134-10.068.191-15.243.037-3.271,1.141-6.477,1.016-9.746a23.2,23.2,0,0,0-2.113-7.894,9.416,9.416,0,0,0-2.047-3.394c-2.587-2.394-6.773-1.368-10.1-2.548-4.3-1.527-6.3-6.284-8.781-10.107-.958-1.466-2.688-3.032-4.246-2.226-1.835.948-1.336,4.188-3.191,5.1-1.124.55-2.5-.144-3.3-1.1s-1.263-2.167-2.05-3.137a5.961,5.961,0,0,0-5.864-2,2.016,2.016,0,0,0-1.112.579c-.591.7-.222,1.752-.181,2.67.142,3.088-3.56,4.8-6.633,5.131s-6.677.366-8.51,2.856c-.977,1.317-1.178,3.032-1.832,4.532-1.52,3.479-5.189,5.375-8.417,7.381s-6.548,4.911-6.518,8.705c.029,3.648,3.176,6.6,3.733,10.2.293,1.911-.164,3.885.2,5.783.672,3.484,3.865,5.822,6.812,7.8a4.586,4.586,0,0,0,2.394,1.007c1.466.012,2.563-1.354,3.289-2.641a25.9,25.9,0,0,0,2.328-5.583c.511-1.786.205-5.1,1.07-6.6C383.314,120.13,389.4,122.395,392.417,121.566Z" transform="translate(-297.129 -66.145)"/></g></svg>