<svg xmlns="http://www.w3.org/2000/svg" xmlns:xlink="http://www.w3.org/1999/xlink" width="597.999" height="364.857" viewBox="0 0 597.999 364.857"><defs><style>.a,.d{fill:#2d93ad;}.a,.f,.j{opacity:0.1;}.b{opacity:0.2;}.c{fill:#3f3d56;}.e{fill:#fff;}.g,.j{fill:#6c63ff;}.h{opacity:0.5;}.i{fill:none;stroke:#3f3d56;stroke-linecap:round;stroke-miterlimit:10;opacity:0.7;}.k{fill:url(#a);}.l{fill:#fbbebe;}.m{fill:#f86d70;}.n{fill:#434175;}</style><linearGradient id="a" x1="9.046" y1="1" x2="9.046" gradientUnits="objectBoundingBox"><stop offset="0" stop-color="gray" stop-opacity="0.251"/><stop offset="0.54" stop-color="gray" stop-opacity="0.122"/><stop offset="1" stop-color="gray" stop-opacity="0.102"/></linearGradient></defs><g transform="translate(0)"><path class="a" d="M626,327.2a94.383,94.383,0,0,1-13.654,49.073c0,18.1-8.437,34.5-22.122,46.455a75.659,75.659,0,0,1-11.019,7.987c-.157.1-.319.193-.481.287-.293.173-.585.345-.883.523l-.277.162h0a86.046,86.046,0,0,1-42.393,10.873H141.52q-4.7,0-9.325-.376a110.372,110.372,0,0,1-31.918-7.391q-2.99-1.181-5.865-2.54-1.37-.643-2.713-1.322c-.559-.282-1.119-.575-1.673-.868a97.969,97.969,0,0,1-18.013-12.226c-17.773-15.279-28.792-36.387-28.792-59.7A94.352,94.352,0,0,1,28,306.557c0-51.823,41.421-93.835,92.522-93.835,1.568,0,3.136.047,4.7.131a4.783,4.783,0,0,1,.669.031,159.413,159.413,0,0,1,33.977-40.051c37.762-32.357,92.951-52.753,154.429-52.753,51.656,0,98.874,14.4,135.041,38.2a91.048,91.048,0,0,1,44.928-11.787c51.091,0,92.522,42.011,92.522,93.835a96.68,96.68,0,0,1-.523,9.817A94.091,94.091,0,0,1,626,327.2Z" transform="translate(-28 -110.106)"/><g class="b" transform="translate(41.525 183.339)"><path class="c" d="M156.963,713.939a6.226,6.226,0,0,1-.052.706q-2.99-1.181-5.865-2.54a4.758,4.758,0,0,1-2.713-1.323c-.559-.282-1.119-.575-1.673-.868a7.157,7.157,0,0,1,.423-.763,4.863,4.863,0,0,1,8.85.272A8.818,8.818,0,0,1,156.963,713.939Z" transform="translate(-126.159 -573.298)"/><path class="c" d="M156.692,696.819a8.823,8.823,0,0,1-1.312,4.433,5.262,5.262,0,0,1-4.516,2.708l-.371-.026a4.757,4.757,0,0,1-2.713-1.323,6.552,6.552,0,0,1-1.249-1.631,9.174,9.174,0,0,1,.282-8.949,4.863,4.863,0,0,1,8.85.272A8.818,8.818,0,0,1,156.692,696.819Z" transform="translate(-125.606 -565.127)"/><ellipse class="c" cx="7.323" cy="5.593" rx="7.323" ry="5.593" transform="translate(19.958 129.727) rotate(-88.19)"/><ellipse class="d" cx="7.323" cy="5.593" rx="7.323" ry="5.593" transform="translate(20.238 120.778) rotate(-88.19)"/><ellipse class="d" cx="7.323" cy="5.593" rx="7.323" ry="5.593" transform="translate(20.571 111.258) rotate(-88.282)"/><path class="d" d="M114.774,494.5a25.958,25.958,0,0,1-1.986-3.136l14.772-1.95-15.9-.382a26.858,26.858,0,0,1,.162-21.244l20.972,11.735-19.21-15.081a26.805,26.805,0,1,1,43.3,31.364,26.722,26.722,0,0,1,2.9,4.982L140.4,510.1l20.559-6.184a26.836,26.836,0,0,1-5.133,25.044,26.805,26.805,0,1,1-42.111-1.328,26.805,26.805,0,0,1,1.045-33.13Z" transform="translate(-107.44 -451.737)"/><path class="a" d="M162.1,567.732a26.69,26.69,0,0,1-6.273,16.382,26.805,26.805,0,1,1-42.111-1.328C110.279,578.118,162.19,564.721,162.1,567.732Z" transform="translate(-107.44 -506.89)"/></g><path class="e" d="M617.544,230.623V481.1a9.623,9.623,0,0,1-9.623,9.623h-384.3a9.477,9.477,0,0,1-2.655-.376A9.608,9.608,0,0,1,214,481.1V261.02a4.778,4.778,0,0,1,.669.031A159.413,159.413,0,0,1,248.646,221H607.921A9.623,9.623,0,0,1,617.544,230.623Z" transform="translate(-116.773 -158.273)"/><rect class="c" width="72.047" height="18.797" rx="9.399" transform="translate(372.269 95.256)"/><rect class="f" width="62.654" height="12.509" rx="6.254" transform="translate(376.964 98.398)"/><rect class="d" width="22.624" height="11.139" rx="5.57" transform="translate(415.426 99.083)"/><circle class="e" cx="3.481" cy="3.481" r="3.481" transform="translate(423.084 101.174)"/><rect class="c" width="72.047" height="18.797" rx="9.399" transform="translate(372.269 219.168)"/><rect class="f" width="62.654" height="12.509" rx="6.254" transform="translate(376.964 222.31)"/><rect class="g" width="22.624" height="11.139" rx="5.57" transform="translate(415.426 222.995)"/><circle class="e" cx="3.481" cy="3.481" r="3.481" transform="translate(423.084 225.086)"/><rect class="c" width="72.047" height="18.797" rx="9.399" transform="translate(372.269 281.122)"/><rect class="f" width="62.654" height="12.509" rx="6.254" transform="translate(376.964 284.269)"/><rect class="d" width="22.624" height="11.139" rx="5.57" transform="translate(415.426 284.953)"/><circle class="e" cx="3.481" cy="3.481" r="3.481" transform="translate(423.084 287.039)"/><rect class="d" width="42.116" height="11.139" rx="5.57" transform="translate(153.681 83.422)"/><rect class="d" width="116.949" height="11.139" rx="5.57" transform="translate(153.681 99.083)"/><rect class="d" width="116.949" height="11.139" rx="5.57" transform="translate(153.681 114.749)"/><g class="h" transform="translate(153.681 145.375)"><rect class="d" width="42.116" height="11.139" rx="5.57"/><rect class="d" width="87.295" height="11.139" rx="5.57" transform="translate(0 15.666)"/><rect class="d" width="116.949" height="11.139" rx="5.57" transform="translate(0 31.327)"/></g><rect class="d" width="42.116" height="11.139" rx="5.57" transform="translate(153.681 207.334)"/><rect class="d" width="116.949" height="11.139" rx="5.57" transform="translate(153.681 222.995)"/><rect class="d" width="72.659" height="11.139" rx="5.57" transform="translate(153.681 238.661)"/><rect class="d" width="42.116" height="11.139" rx="5.57" transform="translate(153.681 269.287)"/><rect class="d" width="116.949" height="11.139" rx="5.57" transform="translate(153.681 284.953)"/><rect class="d" width="94.091" height="11.139" rx="5.57" transform="translate(153.681 300.614)"/><line class="i" x2="340.817" transform="translate(135.909 135.903)"/><line class="i" x2="340.817" transform="translate(135.909 198.892)"/><line class="i" x2="340.817" transform="translate(135.909 261.88)"/><line class="i" x2="340.817" transform="translate(135.909 326.437)"/><ellipse class="j" cx="77.196" cy="5.489" rx="77.196" ry="5.489" transform="translate(338.371 353.88)"/><circle class="a" cx="11.307" cy="11.307" r="11.307" transform="translate(25.556 62.492)"/><circle class="a" cx="11.307" cy="11.307" r="11.307" transform="translate(72.68 0)"/><circle class="a" cx="18.949" cy="18.949" r="18.949" transform="translate(61.206 35.289)"/><rect class="c" width="72.047" height="18.797" rx="9.399" transform="translate(372.269 157.21)"/><rect class="f" width="62.654" height="12.509" rx="6.254" transform="translate(376.964 160.357)"/><path class="k" d="M737.067,588.936c.821-.12,1.641-.288,2.446-.476a7.64,7.64,0,0,1-.69,2.321c-.8,1.516-2.363,2.431-3.8,3.361a1.176,1.176,0,0,0-1.484-.1c-1.73,1.045-3.11,2.52-4.945,3.419-.643.314-1.312.565-1.939.915a10.456,10.456,0,0,0-3.659,3.779c-.523.81-.946,1.877-.434,2.682a2.321,2.321,0,0,0,.742.664,4.223,4.223,0,0,0,2.546.758c.523-.047,1.045-.246,1.615-.334.716-.125,1.448-.063,2.169-.125a12.684,12.684,0,0,0,3.053-.789l3.591-1.255a20.72,20.72,0,0,0,2.953-1.213c.57-.308,1.108-.669,1.688-.951a13.608,13.608,0,0,1,2.018-.711l2.039-.6a1.987,1.987,0,0,1,.92-.12c.282.052.523.23.81.3a2.447,2.447,0,0,0,1.307-.125l2.363-.669a4.453,4.453,0,0,0,1.406-.585c1.082-.768,1.276-2.295,1.27-3.628a27.481,27.481,0,0,0-.679-6,1.867,1.867,0,0,0-.768.58,11.175,11.175,0,0,0-.779-.978,11.659,11.659,0,0,1-2.358-4.354,7.663,7.663,0,0,0,2.091-2.363c-1.249-4.762-2.53-9.6-5.07-13.8-.831-1.37-1.782-2.655-2.614-4-2.472-3.92-2.979-8.886-5.807-12.545a2.175,2.175,0,0,1,0-2.551c.324-.429.847-.831.747-1.364-.073-.382-.47-.732-.319-1.087.073-.173.251-.267.387-.392.481-.45.418-1.207.465-1.866a9.084,9.084,0,0,1,2.044-4.475,2.751,2.751,0,0,1,.753-.815c.256-.157.559-.23.815-.387.9-.57.836-1.892,1.265-2.875.564-1.3,1.986-1.95,2.917-3,1.187-1.338,1.49-3.2,2.739-4.365a3.192,3.192,0,0,1,.413-.334,21.032,21.032,0,0,0-.737,6.09c-.12,7.072,1.636,14.391.815,21.432-.648,5.572,2.755,11.129,7.579,13.915a36.228,36.228,0,0,0,5.9,2.5c3.021,1.082,6.032,2.2,9,3.44q3.136,1.317,6.189,2.828a77.041,77.041,0,0,1,7.318,4.082c2.906,1.866,5.818,3.758,7.883,6.545a6.241,6.241,0,0,0,3.481-1.281c.795.627,1.756,1.1,2.5,1.8a7.557,7.557,0,0,1,1.986,3.9H800.9c.037.7.068,1.39.1,2.091a.888.888,0,0,1-.078.523.946.946,0,0,1-.282.256l-1.61,1.093c-1.171.789-2.462,1.788-2.525,3.2a1.631,1.631,0,0,0,.35,1.145,2.467,2.467,0,0,0,1.432.648,25.236,25.236,0,0,0,8.51.784,5.6,5.6,0,0,0,3.623-1.673,7.173,7.173,0,0,0,1.265-3.471c.35-2.091.643-4.229.873-6.351a14.042,14.042,0,0,1,.868-4.218.523.523,0,0,1,.225-.282c.12-.052.261,0,.387-.052s.209-.246.251-.4a24.931,24.931,0,0,0,.748-6.315,4.254,4.254,0,0,0-.246-1.626,3.283,3.283,0,0,0-2.237-1.725,17.808,17.808,0,0,0-2.891-.345,14.36,14.36,0,0,1-2.4-.439,2.194,2.194,0,0,0-1-.131.7.7,0,0,0-.607.7.9.9,0,0,0,.126.34l-.815-.162c-.659-.12-1.568-.408-2.556-.648a4.544,4.544,0,0,1,.031-.523.988.988,0,0,0-.554-.9l-13.81-7.381-2.582-1.38c-5.656-3.027-11.5-5.823-17.172-8.85-.376.115-.69-.319-.8-.706s-.188-.847-.549-1.019c-.178-.084-.413-.078-.523-.23a.622.622,0,0,1-.1-.465c.183-2.755,2.154-5.3,1.762-8.024-.167-1.166-.768-2.316-.523-3.46a16.37,16.37,0,0,1,1.046-2.185c.679-1.683,0-3.706.742-5.353a12.392,12.392,0,0,0,1-3.408,23.415,23.415,0,0,1,2.091-6.764,12.21,12.21,0,0,1,1.945-2.964c.413-.45.878-.852,1.275-1.317a11.01,11.01,0,0,0,1.986-5.227c.617-3.351,1.046-6.827.272-10.151a14.518,14.518,0,0,1-.643-3.413c0-1.39.559-2.985-.115-4.1a3.607,3.607,0,0,0,1.3-2.232,2.883,2.883,0,0,1,.183-.925,2.687,2.687,0,0,1,.873-.784,3.612,3.612,0,0,0,1.349-3.591c.716.324,1.469-.4,1.809-1.119s.6-1.568,1.323-1.892a10.893,10.893,0,0,1,1.568-.22c.831-.214,1.338-1.045,1.923-1.657a14.824,14.824,0,0,1,4.443-2.739c4.631-2.358,8.405-6.085,12.1-9.754a40.964,40.964,0,0,0,5.227-5.886c.413-.612.789-1.244,1.145-1.892l.094-.047.031.115c.057.23.125.46.193.685.167.523.355,1.082.523,1.615a12.113,12.113,0,0,0,2.326,4.427,5.476,5.476,0,0,0,1.192.925,8,8,0,0,0,3.068.92c.408.052.821.084,1.234.1s.826.037,1.234.047l8.458.225c-2.906-4.213-3.136-9.691-2.943-14.819.486-13.173,3.053-26.466.669-39.429a10.106,10.106,0,0,0-1.626-4.4,9.03,9.03,0,0,0-5.321-2.906A31.959,31.959,0,0,1,813.6,412.1c-1.568-.716-3.011-1.866-4.7-2.242a10.361,10.361,0,0,0-3.764.063q-2.29.34-4.553.8l-.366.078h.016l-.251.057h-.068l-.225.052H799.6l-.209.057-.094.026-.193.063-.11.037-.178.057-.115.047-.167.063-.125.052-.152.068-.125.063-.141.068-.125.073-.131.073-.125.084-.12.078-.125.089-.1.084-.12.1-.1.089a1.266,1.266,0,0,0-.115.12l-.089.089a1.562,1.562,0,0,0-.115.146c0,.026-.047.052-.068.084s-.094.136-.141.214v.031a3.186,3.186,0,0,0-.288.622c-.036.11-.073.22-.1.329a4.982,4.982,0,0,0-.115.68,1.575,1.575,0,0,1-.026.35v.7a10.3,10.3,0,0,0,.131,1.171,12.739,12.739,0,0,0-.606,21.552,5.727,5.727,0,0,1,.042.622v.136a17.278,17.278,0,0,1-.23,2.206,30.662,30.662,0,0,0-6.273-.559c-1.255,0-2.52.115-3.785.214a57.05,57.05,0,0,1-3.785-5.123l-2.791-4.093a38.971,38.971,0,0,1-2.614-4.182c-.685-1.328-1.218-2.739-1.981-4.025-1.568-2.65-4.13-4.9-4.448-7.972l-.737.152c-.4-.659-.91-1.354-1.1-1.735a34.267,34.267,0,0,1-2.321-6.8,10.441,10.441,0,0,0-1.113-3.523,7.94,7.94,0,0,0-1.626-1.725,10.753,10.753,0,0,0-3.481-2.2,4.5,4.5,0,0,0-3.56.209,5.215,5.215,0,0,0-.523-.209,4.312,4.312,0,0,0-3.952.46,5.313,5.313,0,0,0-1.736,3.659,9.034,9.034,0,0,0,.931,5.551c1.046,1.871,2.917,3.136,4.464,4.621a18.08,18.08,0,0,1,2.807,3.492,38.244,38.244,0,0,1-.214,8.473c-.2,1.2-.523,2.384-.617,3.6-.382,4.38,1.9,8.761,1.082,13.068a3.189,3.189,0,0,0,1.479,3.382,16.3,16.3,0,0,0,3.826,1.045c2.525.648,4.7,2.263,7.255,2.865,1.176.282,2.4.335,3.57.648l.183.058a8.5,8.5,0,0,0-1.877,3.565c-.523,2.2-.031,4.542-.554,6.738a15.022,15.022,0,0,1-2.567,4.919q-3.063,4.433-6.137,8.886a54.419,54.419,0,0,1-4.522,5.943c-2.818,3.079-7.679,5.52-9.111,9.221-.031-.089-.073-.178-.1-.267-2.028,1.49-2.786,4.265-4.4,6.194-.789.936-1.762,1.694-2.614,2.561a29.559,29.559,0,0,0-2.891,3.591,63.745,63.745,0,0,0-6.545,10.423c-.9,1.945-1.594,3.968-2.31,5.98-2.812,7.93-7.4,15.452-9.31,23.653-.465,2-1.683,3.811-1.866,5.86-.2,2.185.794,4.286,1.829,6.215,1.568,2.948,3.314,5.813,4.7,8.845.821,1.767,1.531,3.591,2.446,5.316,1,1.882,2.222,3.628,3.267,5.483C734.249,578.482,735.713,583.745,737.067,588.936ZM771.65,439.149l-.251-.125a8.657,8.657,0,0,1-2.535-1.678c-2.253-2.4-3.22-6.027-3.926-9.263-.083-.387-.157-.768-.225-1.155a55.589,55.589,0,0,1,6.937,12.232Z" transform="translate(-358.002 -243.414)"/><path class="l" d="M788.7,408.4a10.26,10.26,0,0,0-1.108-3.5,7.923,7.923,0,0,0-1.631-1.715,10.839,10.839,0,0,0-3.492-2.18,4.359,4.359,0,0,0-3.952.455,5.276,5.276,0,0,0-1.741,3.659,8.923,8.923,0,0,0,.93,5.515c1.072,1.861,2.922,3.105,4.475,4.59a17.977,17.977,0,0,1,2.917,3.659,10.568,10.568,0,0,0,1.328,1.945,2.53,2.53,0,0,0,2.091.841,3.658,3.658,0,0,0,1.709-1.009c.638-.559,2.352-1.568,2.4-2.441.042-.716-1.3-2.337-1.626-3.011A34.184,34.184,0,0,1,788.7,408.4Z" transform="translate(-385.323 -244.052)"/><path class="f" d="M788.7,408.4a10.26,10.26,0,0,0-1.108-3.5,7.923,7.923,0,0,0-1.631-1.715,10.839,10.839,0,0,0-3.492-2.18,4.359,4.359,0,0,0-3.952.455,5.276,5.276,0,0,0-1.741,3.659,8.923,8.923,0,0,0,.93,5.515c1.072,1.861,2.922,3.105,4.475,4.59a17.977,17.977,0,0,1,2.917,3.659,10.568,10.568,0,0,0,1.328,1.945,2.53,2.53,0,0,0,2.091.841,3.658,3.658,0,0,0,1.709-1.009c.638-.559,2.352-1.568,2.4-2.441.042-.716-1.3-2.337-1.626-3.011A34.184,34.184,0,0,1,788.7,408.4Z" transform="translate(-385.323 -244.052)"/><path class="m" d="M831.639,458.574a30.779,30.779,0,0,0-8.458-1.045c-4.762.068-9.665,1.223-14.2-.24a24.78,24.78,0,0,1-3.4-1.448,8.666,8.666,0,0,1-2.54-1.667c-2.258-2.389-3.23-5.99-3.931-9.2a61.392,61.392,0,0,1-1.071-9.791,7.5,7.5,0,0,1-3.711.977,2.727,2.727,0,0,1-2.614-2.4,39.7,39.7,0,0,1-.172,9.122c-.2,1.192-.523,2.368-.612,3.57-.387,4.354,1.9,8.7,1.082,12.995a3.136,3.136,0,0,0,1.479,3.356,16.61,16.61,0,0,0,3.832,1.045c2.525.643,4.7,2.248,7.266,2.849,1.176.277,2.4.329,3.576.643,1.667.444,3.189,1.4,4.893,1.7,1.276.23,2.614.073,3.884.183,1.124.094,2.222.387,3.351.418a9.654,9.654,0,0,0,7.193-3.56C829.313,464.01,830.479,461.067,831.639,458.574Z" transform="translate(-392.105 -259.818)"/><path class="f" d="M831.639,458.574a30.779,30.779,0,0,0-8.458-1.045c-4.762.068-9.665,1.223-14.2-.24a24.78,24.78,0,0,1-3.4-1.448,8.666,8.666,0,0,1-2.54-1.667c-2.258-2.389-3.23-5.99-3.931-9.2a61.392,61.392,0,0,1-1.071-9.791,7.5,7.5,0,0,1-3.711.977,2.727,2.727,0,0,1-2.614-2.4,39.7,39.7,0,0,1-.172,9.122c-.2,1.192-.523,2.368-.612,3.57-.387,4.354,1.9,8.7,1.082,12.995a3.136,3.136,0,0,0,1.479,3.356,16.61,16.61,0,0,0,3.832,1.045c2.525.643,4.7,2.248,7.266,2.849,1.176.277,2.4.329,3.576.643,1.667.444,3.189,1.4,4.893,1.7,1.276.23,2.614.073,3.884.183,1.124.094,2.222.387,3.351.418a9.654,9.654,0,0,0,7.193-3.56C829.313,464.01,830.479,461.067,831.639,458.574Z" transform="translate(-392.105 -259.818)"/><path class="l" d="M874.368,737.737a7.153,7.153,0,0,1,2.441.763,5.749,5.749,0,0,1,2.122,2.865,24.858,24.858,0,0,1,1.427,8.944,19.253,19.253,0,0,1-.92,7.25,4.613,4.613,0,0,1-1.207,1.9,4.355,4.355,0,0,1-1.662.805,4.454,4.454,0,0,1-3.9-.481c-1.192-.931-1.49-2.577-1.741-4.067-.34-2.007-.821-4.145-2.316-5.53-1.108-1.046-2.7-1.568-3.5-2.833-.962-1.521-.455-3.507.157-5.2.523-1.469,1.312-4.443,2.849-5.2S872.773,737.45,874.368,737.737Z" transform="translate(-427.275 -404.41)"/><path class="l" d="M759.577,749.839a11.577,11.577,0,0,0,2.394,4.448c.679.784,1.531,1.735,1.176,2.708a2.518,2.518,0,0,1-.643.863c-5.05,4.935-12.112,7.318-19.116,8.217a.673.673,0,0,1-.34,0c-.2-.089-.256-.35-.277-.575a7.062,7.062,0,0,1,0-2.2c.34-1.709,1.84-2.917,3.309-3.863s3.074-1.856,3.889-3.4c1.019-1.913.591-4.407,1.8-6.2a6.466,6.466,0,0,1,4.553-2.352c.6-.094,1.882-.753,2.394-.449S759.4,749.238,759.577,749.839Z" transform="translate(-369.101 -409.299)"/><path class="m" d="M876.254,737.69a.7.7,0,0,1,.606-.69,2.273,2.273,0,0,1,1,.125,13.858,13.858,0,0,0,2.4.444,17.809,17.809,0,0,1,2.9.34,3.277,3.277,0,0,1,2.242,1.709,4.244,4.244,0,0,1,.246,1.62,24.6,24.6,0,0,1-.748,6.273c-.042.157-.1.34-.256.4s-.261,0-.382.057a.471.471,0,0,0-.225.282,13.814,13.814,0,0,0-.873,4.182c-.23,2.091-.523,4.213-.873,6.3a6.925,6.925,0,0,1-1.265,3.45,5.611,5.611,0,0,1-3.628,1.662,25.571,25.571,0,0,1-8.52-.779,2.494,2.494,0,0,1-1.438-.643,1.614,1.614,0,0,1-.35-1.14c.063-1.406,1.359-2.4,2.525-3.183l1.615-1.082a.835.835,0,0,0,.282-.256.874.874,0,0,0,.078-.523l-.1-2.091a5.923,5.923,0,0,1,5.159,3.21c.219.444.434.962.894,1.134a1.181,1.181,0,0,0,1.406-.852,3.623,3.623,0,0,0-.047-1.814c-.946-5.055-.721-10.251-1.3-15.358a3.466,3.466,0,0,0-.523-1.62C876.829,738.5,876.312,738.16,876.254,737.69Z" transform="translate(-428.472 -404.541)"/><rect class="d" width="22.624" height="11.139" rx="5.57" transform="translate(401.155 172.181) rotate(180)"/><circle class="e" cx="3.481" cy="3.481" r="3.481" transform="translate(386.535 163.127)"/><path class="m" d="M738.114,769.1c-.235.392-.606.7-.826,1.1a.941.941,0,0,0,.178,1.228,1.213,1.213,0,0,0,.747.073,25.149,25.149,0,0,0,13.591-6.158,9.519,9.519,0,0,0,1.667-1.824c.444-.674.821-1.5,1.568-1.782a27.134,27.134,0,0,1,.7,5.985c0,1.328-.188,2.838-1.27,3.607a4.51,4.51,0,0,1-1.411.575l-2.363.669a2.514,2.514,0,0,1-1.312.125c-.277-.073-.523-.251-.81-.3a1.987,1.987,0,0,0-.92.12l-2.044.6a12.991,12.991,0,0,0-2.018.706c-.585.277-1.124.632-1.694.941a20.274,20.274,0,0,1-2.959,1.2l-3.591,1.249a13.029,13.029,0,0,1-3.058.784c-.721.063-1.458,0-2.175.12a14.766,14.766,0,0,1-1.62.334,4.239,4.239,0,0,1-2.546-.753,2.365,2.365,0,0,1-.742-.659c-.523-.8-.068-1.856.434-2.666a10.538,10.538,0,0,1,3.659-3.753c.627-.345,1.3-.6,1.945-.91,1.835-.889,3.22-2.373,4.95-3.387C737.832,765.358,738.883,767.83,738.114,769.1Z" transform="translate(-360.649 -416.349)"/><path class="l" d="M846.69,483.334a14.935,14.935,0,0,0,6.356,2.473,25.885,25.885,0,0,0,3.6.193,91.4,91.4,0,0,0,14.966-1.249c-1.965-2.169-3.957-4.49-4.7-7.318a12.081,12.081,0,0,1-.23-4.584,34.517,34.517,0,0,1,1.4-5.75,40.587,40.587,0,0,1-6.325-.162c-1.2-.125-4.135-1.213-5.175-.387s-.24,3.487-.225,4.736a1.148,1.148,0,0,1,0,.136,15.123,15.123,0,0,1-1.207,5.53C853.647,480.329,850.407,483.109,846.69,483.334Z" transform="translate(-418.74 -275.321)"/><path class="f" d="M864.9,471.24a12.577,12.577,0,0,0,10.324,1.568,34.5,34.5,0,0,1,1.4-5.75,40.581,40.581,0,0,1-6.325-.162c-1.2-.125-4.135-1.213-5.175-.387S864.883,469.991,864.9,471.24Z" transform="translate(-427.283 -275.302)"/><circle class="l" cx="12.603" cy="12.603" r="12.603" transform="translate(431.912 172.202)"/><path class="m" d="M776.09,534.549a5.87,5.87,0,0,0,2.844,5.055,11.337,11.337,0,0,0,3.084,1.087c5.75,1.39,11.667,2.509,17.59,2.169a9.666,9.666,0,0,0,3.732-.784,4,4,0,0,0,2.305-2.88,2.708,2.708,0,0,1,.178-.915,2.669,2.669,0,0,1,.873-.779,3.576,3.576,0,0,0,1.354-3.565c.716.324,1.469-.4,1.809-1.113s.6-1.568,1.323-1.877a10.875,10.875,0,0,1,1.568-.22c.831-.214,1.338-1.045,1.924-1.647a15.089,15.089,0,0,1,4.448-2.723c4.642-2.337,8.421-6.043,12.127-9.686a40.646,40.646,0,0,0,5.227-5.844,21.528,21.528,0,0,0,1.15-1.882,53.227,53.227,0,0,0,2.9-6.644,7.661,7.661,0,0,0,.753-3.805,1.733,1.733,0,0,0-.068-.35,7.315,7.315,0,0,0-1.145-2.31c-1.281-1.882-2.959-3.659-5.164-4.245s-4.4.12-6.644.6a16.643,16.643,0,0,1-2.253.345,21.164,21.164,0,0,1-7.015-1.1l-2.5-.69c-1.249-.345-1.877-1.856-3.136-2.122a4.244,4.244,0,0,0-1.7.089,23.413,23.413,0,0,0-7.423,2.425,11.139,11.139,0,0,0-1.443.983,9.131,9.131,0,0,0-3.356,4.95c-.523,2.18-.031,4.511-.554,6.691a14.9,14.9,0,0,1-2.567,4.882l-6.158,8.818a54.433,54.433,0,0,1-4.527,5.9C782.316,526.953,776.179,529.661,776.09,534.549Z" transform="translate(-385.044 -285.977)"/><path class="l" d="M796.55,408.4a10.26,10.26,0,0,0-1.108-3.5,7.928,7.928,0,0,0-1.631-1.714,10.841,10.841,0,0,0-3.492-2.18,4.36,4.36,0,0,0-3.952.455,5.277,5.277,0,0,0-1.741,3.659,8.923,8.923,0,0,0,.93,5.515c1.046,1.861,2.922,3.105,4.475,4.59a17.982,17.982,0,0,1,2.917,3.659,10.565,10.565,0,0,0,1.328,1.945,2.53,2.53,0,0,0,2.091.842,3.659,3.659,0,0,0,1.709-1.009c.638-.559,2.352-1.568,2.4-2.441.042-.716-1.3-2.337-1.626-3.011A34.2,34.2,0,0,1,796.55,408.4Z" transform="translate(-389.07 -244.052)"/><path class="n" d="M721.118,636.188c1.568,2.927,3.314,5.75,4.731,8.782.821,1.762,1.531,3.57,2.446,5.285,1,1.866,2.227,3.6,3.272,5.442,2.614,4.652,4.093,9.9,5.447,15.07a30,30,0,0,0,10.726-3.774,6.757,6.757,0,0,0,.643-.413,7.59,7.59,0,0,0,2.164-2.389c-1.249-4.7-2.53-9.529-5.076-13.706-.831-1.359-1.782-2.614-2.614-3.978-2.473-3.894-2.985-8.8-5.813-12.446a2.133,2.133,0,0,1,0-2.53c.324-.423.847-.826.747-1.354-.073-.382-.47-.727-.319-1.082.073-.172.251-.267.387-.392.481-.439.418-1.2.465-1.845a9.044,9.044,0,0,1,2.049-4.448,2.79,2.79,0,0,1,.753-.81c.256-.157.559-.23.815-.387.9-.559.836-1.877,1.27-2.854.564-1.286,1.986-1.939,2.922-2.98,1.187-1.328,1.484-3.173,2.739-4.333a3.731,3.731,0,0,1,.413-.334,20.763,20.763,0,0,0-.737,6.069c-.12,7.025,1.636,14.291.815,21.27-.648,5.531,2.76,11.05,7.59,13.821a36.741,36.741,0,0,0,5.912,2.488c3.021,1.072,6.043,2.174,9.007,3.413,2.091.868,4.182,1.809,6.2,2.807a76.311,76.311,0,0,1,7.318,4.056c2.911,1.85,5.828,3.732,7.893,6.5a7.081,7.081,0,0,0,5.1-2.807,19.683,19.683,0,0,0,2.791-5.285,14.685,14.685,0,0,0,1.328-4.982.993.993,0,0,0-.554-.894l-13.831-7.318-2.614-1.37c-5.661-3.006-11.5-5.787-17.193-8.787-.381.11-.7-.324-.8-.7s-.188-.847-.549-1.014c-.183-.084-.413-.084-.523-.23a.628.628,0,0,1-.094-.46c.183-2.739,2.159-5.259,1.762-7.972-.167-1.16-.769-2.3-.523-3.434a15.978,15.978,0,0,1,1.045-2.174c.674-1.673,0-3.659.742-5.316a12.193,12.193,0,0,0,1-3.387,22.941,22.941,0,0,1,2.117-6.712,12.114,12.114,0,0,1,1.945-2.948c.418-.444.883-.847,1.275-1.307a10.913,10.913,0,0,0,1.992-5.165c.617-3.33,1.045-6.8.272-10.083a14.342,14.342,0,0,1-.643-3.393c0-1.521.685-3.3-.371-4.406a3.45,3.45,0,0,0-1.568-.795,47.259,47.259,0,0,0-7.5-1.385l-11.531-1.5a10.6,10.6,0,0,1-3.842-1,7.661,7.661,0,0,1-3.241-4.14c-2.028,1.479-2.791,4.234-4.406,6.147-.789.936-1.762,1.688-2.614,2.546a28.814,28.814,0,0,0-2.9,3.57,63.432,63.432,0,0,0-6.56,10.35c-.894,1.929-1.568,3.941-2.31,5.938-2.817,7.878-7.412,15.352-9.32,23.491-.47,1.992-1.688,3.785-1.871,5.823C719.079,632.195,720.077,634.286,721.118,636.188Z" transform="translate(-357.923 -325.877)"/><path class="f" d="M836.967,567.716a3.581,3.581,0,0,1,.423,1.7c-.256-1.275-2.012-1.981-2.122-3.241-.052-.58.052-.554.413-.246C836.23,566.388,836.466,567.214,836.967,567.716Z" transform="translate(-413.283 -322.798)"/><path class="f" d="M827.275,576.567a2.693,2.693,0,0,1,.8,1.181,3.006,3.006,0,0,1,.157,2.054c-.256-.12-.345-.434-.423-.711a4.9,4.9,0,0,0-.523-1.218c-.209-.329-1.166-1.113-1.155-1.474C826.114,575.856,827.018,576.374,827.275,576.567Z" transform="translate(-408.927 -327.781)"/><path class="f" d="M827.14,492.071a13.19,13.19,0,0,0,2.655,1.767c2.5,1.265,5.264,1.929,7.778,3.136a37.752,37.752,0,0,1,3.607,2.091c2.493,1.568,4.982,3.136,7.47,4.731a8.233,8.233,0,0,1,1.647,1.249c.9.962.894,2.614,1.715,3.659a4.913,4.913,0,0,0,3.622,1.673,11.76,11.76,0,0,0,4.041-.68,19.984,19.984,0,0,0,2.31-.841,10.7,10.7,0,0,0,2.216-1.265,6.372,6.372,0,0,0,2.614-4.124,8.145,8.145,0,0,0-.444-3.366,13.111,13.111,0,0,0-.794-2.044,7.94,7.94,0,0,0-.638-1.072c-1.714-2.431-4.736-3.575-7.658-4.145-1.542-.3-3.11-.481-4.657-.742a16.631,16.631,0,0,1-2.253.345,21.165,21.165,0,0,1-7.015-1.1l-2.5-.69c-1.249-.345-1.877-1.856-3.136-2.122a4.242,4.242,0,0,0-1.7.089,23.411,23.411,0,0,0-7.423,2.425A11.147,11.147,0,0,0,827.14,492.071Z" transform="translate(-409.409 -285.934)"/><path class="m" d="M807.3,431.36c.319,3.047,2.891,5.285,4.459,7.914.763,1.281,1.3,2.682,1.981,4a39.182,39.182,0,0,0,2.614,4.182l2.8,4.062a42.033,42.033,0,0,0,5.41,6.8c3.659.622,6.743,3.345,10.219,4.668,2.786,1.045,5.818,1.2,8.74,1.772s5.943,1.709,7.658,4.145a10.885,10.885,0,0,1,1.432,3.136,8.124,8.124,0,0,1,.444,3.361,6.372,6.372,0,0,1-2.614,4.13,14.485,14.485,0,0,1-4.522,2.091,11.888,11.888,0,0,1-4.041.68,4.934,4.934,0,0,1-3.628-1.673c-.815-1.045-.81-2.713-1.709-3.659a8.237,8.237,0,0,0-1.647-1.249l-7.47-4.7a37.754,37.754,0,0,0-3.607-2.091c-2.514-1.228-5.28-1.892-7.778-3.136s-4.825-3.351-5.316-6.105c-1.521-8.463-7.381-15.6-12.389-22.587.162-.031.115-.408.172-.565a7.318,7.318,0,0,1,3.659-3.7A18.479,18.479,0,0,1,807.3,431.36Z" transform="translate(-395.664 -258.672)"/><path class="n" d="M865.978,426.142a4.636,4.636,0,0,1,.523-2.655c.831-1.38,2.567-1.866,4.145-2.19s3.032-.575,4.558-.794a10.507,10.507,0,0,1,3.769-.068c1.7.376,3.136,1.521,4.7,2.227a33.435,33.435,0,0,0,5.98,1.526,9.187,9.187,0,0,1,5.332,2.885,10,10,0,0,1,1.626,4.365c2.389,12.875-.183,26.079-.669,39.163-.193,5.091.037,10.533,2.948,14.72l-8.474-.225c-2.169-.057-4.5-.173-6.2-1.511-1.505-1.176-2.216-3.074-2.854-4.867a15.157,15.157,0,0,1-1.087-4.365c-.131-3.074,1.615-6.09,1.045-9.116-.423-2.258-2.091-4.088-3.826-5.567s-3.711-2.77-5.138-4.574c-2.535-3.215-3.021-7.6-2.708-11.683a44.2,44.2,0,0,0,.413-7.282,9.162,9.162,0,0,0-1.918-5.1A7.192,7.192,0,0,1,865.978,426.142Z" transform="translate(-427.934 -253.392)"/><path class="f" d="M866.5,424.419c.816-1.359,2.509-1.851,4.062-2.169a4.009,4.009,0,0,0-2.012,1.568,4.7,4.7,0,0,0-.523,2.661c.115,2.274.821,3.277,2.169,4.887a9.118,9.118,0,0,1,1.924,5.1,44.8,44.8,0,0,1-.413,7.282c-.319,4.077.167,8.468,2.708,11.683a34.337,34.337,0,0,0,5.138,4.574c1.756,1.485,3.4,3.309,3.826,5.567.565,3.021-1.181,6.043-1.045,9.116a14.9,14.9,0,0,0,1.082,4.36c.643,1.8,1.354,3.7,2.854,4.872,1.7,1.338,4.041,1.453,6.21,1.511l6,.157c.131.219.272.439.418.653l-8.473-.225c-2.169-.058-4.5-.173-6.2-1.511-1.505-1.176-2.216-3.074-2.854-4.867a15.161,15.161,0,0,1-1.087-4.365c-.131-3.074,1.615-6.09,1.045-9.116-.423-2.258-2.091-4.088-3.826-5.567s-3.711-2.77-5.138-4.574c-2.535-3.215-3.021-7.6-2.708-11.683a44.2,44.2,0,0,0,.413-7.282,9.163,9.163,0,0,0-1.918-5.1c-1.349-1.61-2.054-2.614-2.174-4.888A4.637,4.637,0,0,1,866.5,424.419Z" transform="translate(-427.931 -254.324)"/><path class="f" d="M745.22,657.221l15.567,37.924a7.588,7.588,0,0,0,2.164-2.389c-1.249-4.7-2.53-9.529-5.076-13.706-.831-1.359-1.782-2.614-2.614-3.978-2.472-3.894-2.985-8.8-5.813-12.446a2.133,2.133,0,0,1,0-2.53c.324-.423.847-.826.748-1.354-.073-.382-.47-.727-.319-1.082.073-.172.251-.266.387-.392.481-.439.418-1.2.465-1.845a9.046,9.046,0,0,1,2.049-4.448,2.792,2.792,0,0,1,.753-.81c.256-.157.559-.23.815-.387.9-.559.836-1.877,1.27-2.854.565-1.286,1.986-1.939,2.922-2.98,1.187-1.328,1.484-3.173,2.739-4.333l.11-.272-1.176-7.318Z" transform="translate(-370.311 -354.442)"/><ellipse class="d" cx="17.747" cy="3.413" rx="17.747" ry="3.413" transform="translate(492.982 341.246)"/><ellipse class="c" cx="2.065" cy="2.702" rx="2.065" ry="2.702" transform="translate(508.962 340.504)"/><ellipse class="c" cx="2.065" cy="2.702" rx="2.065" ry="2.702" transform="translate(508.962 337.2)"/><ellipse class="c" cx="2.065" cy="2.702" rx="2.065" ry="2.702" transform="translate(508.962 333.891)"/><ellipse class="c" cx="2.065" cy="2.702" rx="2.065" ry="2.702" transform="translate(508.962 330.587)"/><ellipse class="c" cx="2.065" cy="2.702" rx="2.065" ry="2.702" transform="translate(508.962 327.279)"/><ellipse class="c" cx="2.065" cy="2.702" rx="2.065" ry="2.702" transform="translate(508.962 323.975)"/><ellipse class="c" cx="2.065" cy="2.702" rx="2.065" ry="2.702" transform="translate(508.962 320.671)"/><path class="d" d="M988.887,661.693a9.8,9.8,0,0,1-.768-1.134l5.426-.894-5.87.047a9.931,9.931,0,0,1-.188-7.841l7.877,4.083-7.266-5.337a9.9,9.9,0,1,1,16.346,11.077,9.59,9.59,0,0,1,1.129,1.8l-7.047,3.659,7.517-2.52a9.966,9.966,0,0,1,.523,3.173,9.854,9.854,0,0,1-2.122,6.121,9.9,9.9,0,1,1-15.557,0A9.9,9.9,0,0,1,988.887,661.693Z" transform="translate(-485.596 -360.943)"/><path class="f" d="M1006.566,687.917a9.853,9.853,0,0,1-2.122,6.121,9.9,9.9,0,1,1-15.556,0C987.559,692.355,1006.566,686.809,1006.566,687.917Z" transform="translate(-485.596 -381.051)"/><ellipse class="d" cx="11.934" cy="2.295" rx="11.934" ry="2.295" transform="translate(533.358 304.456)"/><ellipse class="c" cx="1.39" cy="1.819" rx="1.39" ry="1.819" transform="translate(544.105 303.96)"/><ellipse class="c" cx="1.39" cy="1.819" rx="1.39" ry="1.819" transform="translate(544.105 301.738)"/><ellipse class="c" cx="1.39" cy="1.819" rx="1.39" ry="1.819" transform="translate(544.105 299.511)"/><ellipse class="c" cx="1.39" cy="1.819" rx="1.39" ry="1.819" transform="translate(544.105 297.29)"/><ellipse class="c" cx="1.39" cy="1.819" rx="1.39" ry="1.819" transform="translate(544.105 295.068)"/><ellipse class="c" cx="1.39" cy="1.819" rx="1.39" ry="1.819" transform="translate(544.105 292.847)"/><ellipse class="c" cx="1.39" cy="1.819" rx="1.39" ry="1.819" transform="translate(544.105 290.62)"/><path class="d" d="M1060.3,621.481a5.763,5.763,0,0,1-.523-.763l3.659-.6-3.947.031a6.6,6.6,0,0,1-.612-2.781,6.68,6.68,0,0,1,.481-2.493l5.3,2.75-4.887-3.591a6.654,6.654,0,1,1,10.977,7.449,6.56,6.56,0,0,1,.758,1.213l-4.736,2.462,5.05-1.7a6.676,6.676,0,0,1-1.072,6.273,6.659,6.659,0,1,1-10.454,0,6.644,6.644,0,0,1,0-8.228Z" transform="translate(-520.003 -344.249)"/><path class="f" d="M1072.189,639.14a6.649,6.649,0,0,1-1.422,4.114,6.66,6.66,0,1,1-10.455,0C1059.413,642.12,1072.189,638.393,1072.189,639.14Z" transform="translate(-520.013 -357.794)"/></g></svg>