<svg xmlns="http://www.w3.org/2000/svg" width="476.447" height="366.365" viewBox="0 0 476.447 366.365"><defs><style>.a{fill:#f0f0f0;}.b{fill:#3f3d56;}.c{fill:#2d93ad;}.d{opacity:0.1;}.e{fill:#2f2e41;}.f{fill:#ffb8b8;}.g{fill:#ff6584;}</style></defs><g transform="translate(0.369)"><path class="a" d="M124.231,351.126l36.852-57.952-82.53-52.48L35.931,307.719l68.263,43.407Z" transform="translate(-14.53 -98.023)"/><path class="b" d="M408.783,586.375H317.5V568h91.283Zm-90.1-1.186H407.6v-16H318.686Z" transform="translate(-246.86 -315.194)"/><ellipse class="c" cx="6.309" cy="5.858" rx="6.309" ry="5.858" transform="translate(143.837 256.408)"/><circle class="c" cx="5.858" cy="5.858" r="5.858" transform="translate(128.515 256.408)"/><circle class="c" cx="5.858" cy="5.858" r="5.858" transform="translate(112.292 256.408)"/><circle class="c" cx="5.858" cy="5.858" r="5.858" transform="translate(95.167 256.408)"/><circle class="c" cx="5.858" cy="5.858" r="5.858" transform="translate(78.944 256.408)"/><path class="a" d="M594.227,208.48V163.432h22.524V141.5H506.5V251.751h94.247V240.971a15.3,15.3,0,0,1,15.3-15.3h.7V208.48Z" transform="translate(-323.831 -141.5)"/><path class="c" d="M0,0H73V15.322H0Z" transform="translate(319.587 284.348)"/><rect class="a" width="109.055" height="14.421" transform="translate(299.759 208.64)"/><rect class="b" width="461.457" height="0.901" transform="translate(-0.369 365.463)"/><path class="b" d="M815.168,564.647H680.394A15.912,15.912,0,0,1,664.5,548.753V298.394A15.912,15.912,0,0,1,680.394,282.5H815.168a15.912,15.912,0,0,1,15.894,15.894V548.753A15.913,15.913,0,0,1,815.168,564.647ZM680.394,283.686a14.725,14.725,0,0,0-14.709,14.709V548.753a14.725,14.725,0,0,0,14.709,14.709H815.168a14.725,14.725,0,0,0,14.709-14.709V298.394a14.725,14.725,0,0,0-14.709-14.709Z" transform="translate(-388.178 -198.923)"/><path class="b" d="M775.557,297.613a3.556,3.556,0,1,1,3.557-3.556A3.556,3.556,0,0,1,775.557,297.613Zm0-5.927a2.371,2.371,0,1,0,2.371,2.371A2.371,2.371,0,0,0,775.557,291.686Z" transform="translate(-431.957 -202.181)"/><rect class="b" width="26.081" height="1.185" transform="translate(352.49 91.283)"/><path class="c" d="M894.92,311.5v47.42A47.421,47.421,0,0,1,847.5,311.5Z" transform="translate(-462.705 -210.733)"/><path class="b" d="M827.908,560.046H681.5V310.5H827.908Zm-145.223-1.186H826.723V311.686H682.685Z" transform="translate(-395.101 -210.326)"/><circle class="d" cx="16.223" cy="16.223" r="16.223" transform="translate(381.776 113.104)"/><ellipse class="c" cx="16.223" cy="15.772" rx="16.223" ry="15.772" transform="translate(379.072 114.906)"/><rect class="b" width="22.532" height="8.112" transform="translate(292.548 110.4)"/><rect class="b" width="23.433" height="9.013" transform="translate(305.166 188.812)"/><path class="b" d="M822.565,501.911H713.5V486.5H822.565Zm-107.88-1.185H821.38v-13.04H714.686Z" transform="translate(-408.133 -282.003)"/><rect class="a" width="109.055" height="14.421" transform="translate(299.759 253.704)"/><rect class="b" width="23.433" height="7.21" transform="translate(305.166 234.777)"/><path class="b" d="M822.565,577.911H713.5V562.5H822.565Zm-107.88-1.185H821.38v-13.04H714.686Z" transform="translate(-408.133 -312.954)"/><path class="b" d="M817.186,630.1H742.5V613.5h74.686Zm-73.5-1.185H816V614.685H743.686Z" transform="translate(-419.943 -333.724)"/><path class="c" d="M884.353,498.427a5.928,5.928,0,0,1-10.5,3.776l-.006-.006a5.927,5.927,0,1,1,10.332-5.175.006.006,0,0,0,0,0l0,0a6.067,6.067,0,0,1,.166,1.4Z" transform="translate(-472.885 -284.446)"/><path class="d" d="M885.169,500.056a5.928,5.928,0,0,1-10.5,3.776l-.006-.006a6.073,6.073,0,0,1-.166-1.4,5.928,5.928,0,0,1,10.5-3.776.006.006,0,0,0,0,0l0,0a6.06,6.06,0,0,1,.166,1.4Z" transform="translate(-473.701 -286.075)"/><circle class="c" cx="5.858" cy="5.858" r="5.858" transform="translate(402.505 211.344)"/><path class="c" d="M884.353,574.427a5.928,5.928,0,0,1-10.5,3.776l-.006-.006a5.927,5.927,0,1,1,10.332-5.175.006.006,0,0,0,0,0l0,0a6.066,6.066,0,0,1,.166,1.4Z" transform="translate(-472.885 -315.397)"/><path class="d" d="M885.169,576.056a5.928,5.928,0,0,1-10.5,3.776l-.006-.006a6.073,6.073,0,0,1-.166-1.4,5.928,5.928,0,0,1,10.5-3.776.006.006,0,0,0,0,0l0,0a6.06,6.06,0,0,1,.166,1.4Z" transform="translate(-473.701 -317.026)"/><path class="c" d="M5.858,0A5.858,5.858,0,1,1,0,5.858,5.858,5.858,0,0,1,5.858,0Z" transform="translate(402.505 256.408)"/><rect class="a" width="30.644" height="30.644" transform="translate(277.227 28.383)"/><path class="b" d="M864.613,217.726a7.113,7.113,0,1,1,7.113-7.113A7.113,7.113,0,0,1,864.613,217.726Zm0-13.04a5.927,5.927,0,1,0,5.927,5.927A5.927,5.927,0,0,0,864.613,204.686Z" transform="translate(-466.777 -166.75)"/><path class="b" d="M594.911,383.911H579.5V368.5h15.411Zm-14.226-1.186h13.04v-13.04h-13.04Z" transform="translate(-353.561 -233.947)"/><path class="b" d="M990.911,577.911H975.5V562.5h15.411Zm-14.226-1.185h13.04v-13.04h-13.04Z" transform="translate(-514.833 -312.954)"/><path class="e" d="M488.5,399.777l2.645,1.424,9,4.85,14.528,7.828,8.467-15.709a12.759,12.759,0,0,0-5.183-17.3,16.947,16.947,0,0,0-19.787,2.685l0,0a16.964,16.964,0,0,0-3.186,4.193Z" transform="translate(-316.502 -238.155)"/><path class="f" d="M348.059,541.717l-1.775,19.524-6.657.887-4.437-22.187Z" transform="translate(-136.405 -219.893)"/><path class="e" d="M536.759,717.318s8.431-4.437,10.206-.887c0,0-1.331,10.65,3.994,11.981s7.544,10.65,0,11.537-12.425-1.775-15.087-1.775,0-9.319,0-9.319Z" transform="translate(-335.311 -375.082)"/><path class="f" d="M266.316,541.717l1.775,19.524,6.656.887,4.437-22.187Z" transform="translate(-108.355 -219.893)"/><path class="e" d="M468.938,717.318s-8.431-4.437-10.206-.887c0,0,1.331,10.65-3.994,11.981s-7.544,10.65,0,11.537,12.425-1.775,15.087-1.775,0-9.319,0-9.319Z" transform="translate(-300.772 -375.082)"/><circle class="f" cx="11.537" cy="11.537" r="11.537" transform="translate(182.81 142.106)"/><path class="f" d="M464.067,423.337l9.319,14.644,11.094-.887,18.194,1.331s1.717-3.435,3.12-6.776a26.253,26.253,0,0,0,1.762-5.205c.444-3.106-5.769-6.212-5.769-6.212s-.244-.044-.652-.142c-.541-.129-1.376-.342-2.29-.652-2.063-.7-4.544-1.89-5.045-3.643-.888-3.106,5.769-7.544,5.769-7.544l-7.987-7.544s-7.1,9.856-15.713,12.1a13.737,13.737,0,0,1-1.518.311l-.075.013C464.955,414.462,464.067,423.337,464.067,423.337Z" transform="translate(-306.551 -247.063)"/><path class="f" d="M461.719,432.148l-4.881,3.994s-3.994,19.081-2.663,24.406-.444,10.206-.444,11.094-3.994,34.169-3.994,34.169-7.987,17.75.444,15.975,5.325-19.525,5.325-19.525L465.713,471.2V445.017Z" transform="translate(-299.321 -259.868)"/><path class="f" d="M530.224,438.138l3.55,2.662,1.775,37.275,13.312,31.95s9.762,15.531,3.55,15.975-10.206-15.975-10.206-15.975l-11.981-30.618-1.775-29.731Z" transform="translate(-332.77 -262.307)"/><path class="e" d="M479.06,442.629s8.875,6.212,23.075,3.994c0,0,3.994,7.987,1.775,12.425s2.662,15.087,3.55,16.419,11.094,28.844,14.644,58.575,13.313,50.143,4.881,52.806-25.737,5.769-27.512,3.106-4.437-68.781-4.437-68.781l-4.881,25.294s6.656,43.043,1.775,43.931-35.5-1.775-34.612-7.1,9.762-33.281,9.762-33.281-.444-55.912,8.431-66.562c0,0,3.55-5.769-1.331-13.312s-4.437-19.525-4.437-19.525S473.292,450.617,479.06,442.629Z" transform="translate(-303.794 -264.136)"/><path class="e" d="M282.913,279.932l7.469,16.432,1.775-.887-7.726-15.855Z" transform="translate(-115.115 -113.877)"/><path class="e" d="M522.737,432.306l5.6,12.332,1.344-.12-.457-2.1-4.2-9.461C524.486,432.829,523.651,432.616,522.737,432.306Z" transform="translate(-330.444 -259.932)"/><path class="e" d="M492.736,401.2a7.3,7.3,0,0,0,13.4,1.3c-5.613-7.34-.8-11.95,8.32-15.438a7.3,7.3,0,0,0-.785-8.094,17,17,0,0,0-13.912,4.579l0,0-6.479,12.017a7.269,7.269,0,0,0-.541,5.627Z" transform="translate(-318.091 -238.157)"/><ellipse class="f" cx="1.553" cy="2.662" rx="1.553" ry="2.662" transform="translate(185.917 152.312)"/><path class="e" d="M522.408,389.513l13.339,6.044,2.445-5.4a12.781,12.781,0,0,0-2.574-5.383l-9.181-4.158Z" transform="translate(-330.31 -238.883)"/><ellipse class="c" cx="5.408" cy="5.858" rx="5.408" ry="5.858" transform="translate(218.643 257.309)"/><path class="g" d="M3.874,0A3.874,3.874,0,1,1,0,3.874,3.874,3.874,0,0,1,3.874,0Z" transform="translate(29.99 297.189)"/><rect class="b" width="1.185" height="44.107" transform="translate(52.25 321.252)"/><circle class="b" cx="6.237" cy="6.237" r="6.237" transform="translate(46.605 315.015)"/><path class="b" d="M274.313,717.573s-.891-19.165-19.158-16.937" transform="translate(-221.47 -369.137)"/></g></svg>